<svg width="279" height="152" viewBox="0 0 279 152" fill="none" xmlns="http://www.w3.org/2000/svg">
<g clip-path="url(#clip0)">
<path d="M28.5744 62.2218L29.8194 82.2231L68.4123 114.197L61.4831 49.1657L48.2368 54.4231L28.5744 62.2218Z" fill="#994034"/>
<path d="M61.4832 49.1657L65.4832 113.427L145.801 113.268L144.188 47.9804C144.188 47.9804 125.796 46.6469 121.078 46.7146C105.119 46.9452 61.4832 49.1657 61.4832 49.1657Z" fill="#994034"/>
<path d="M88.0388 119.684C86.4273 119.783 84.8099 119.716 83.2117 119.486C79.7351 118.994 76.3929 117.805 73.3849 115.988C73.3639 115.977 73.3455 115.961 73.3309 115.942C73.3164 115.923 73.3059 115.902 73.3001 115.879C73.2944 115.855 73.2936 115.831 73.2977 115.808C73.3018 115.784 73.3108 115.762 73.3241 115.742C73.3374 115.722 73.3546 115.705 73.3748 115.692C73.3949 115.679 73.4175 115.671 73.4411 115.667C73.4647 115.664 73.4888 115.665 73.5118 115.672C73.5348 115.678 73.5562 115.689 73.5747 115.704C76.5408 117.497 79.8368 118.671 83.2655 119.156C88.5213 119.905 96.3803 119.234 103.981 111.778C104.014 111.746 104.058 111.729 104.103 111.729C104.149 111.73 104.192 111.748 104.224 111.78C104.256 111.813 104.273 111.857 104.273 111.902C104.272 111.947 104.254 111.99 104.222 112.022C98.5976 117.537 92.8223 119.386 88.0388 119.684Z" fill="#DFDFDF"/>
<path d="M76.5571 70.4249C73.0621 73.6885 69.5526 82.6442 66.7583 92.557C64.8894 99.1916 66.2147 105.466 72.5926 105.069C76.0699 104.852 75.5192 110.488 76.5758 113.103C78.546 117.971 80.1313 115.748 87.2121 115.287C93.1399 114.9 95.7522 117.534 99.1593 115.285C105.452 111.136 100.631 119.342 104.374 116.363C106.365 114.778 109.877 110.884 110.794 108.212C113.687 99.7959 112.155 87.8615 110.325 82.1121C107.603 73.5673 101.111 65.7478 95.6272 64.3838C89.7485 62.9263 80.9958 66.2757 76.5571 70.4249Z" fill="white"/>
<path d="M96.2765 98.802C96.2518 98.8033 96.2272 98.7996 96.2041 98.7911C96.162 98.7742 96.1282 98.7414 96.1098 98.6999C96.0914 98.6583 96.09 98.6112 96.1057 98.5686C96.1432 98.4713 99.7616 88.8385 93.881 83.0715C93.8649 83.0556 93.8521 83.0367 93.8432 83.0159C93.8344 82.9951 93.8297 82.9727 93.8295 82.95C93.8293 82.9274 93.8335 82.9049 93.8419 82.8839C93.8504 82.8629 93.8628 82.8438 93.8786 82.8276C93.8945 82.8115 93.9133 82.7986 93.9341 82.7897C93.9548 82.7809 93.9772 82.7762 93.9997 82.776C94.0223 82.7758 94.0447 82.78 94.0657 82.7885C94.0866 82.797 94.1057 82.8095 94.1218 82.8253C100.164 88.7595 96.4664 98.6027 96.4284 98.6924C96.4159 98.7231 96.395 98.7497 96.3682 98.7691C96.3413 98.7885 96.3095 98.7999 96.2765 98.802V98.802Z" fill="#DFDFDF"/>
<path d="M84.8116 98.1201C84.7849 98.1217 84.7582 98.117 84.7335 98.1066C84.7089 98.0961 84.687 98.08 84.6696 98.0596C84.655 98.0424 84.6439 98.0224 84.6371 98.0008C84.6302 97.9792 84.6277 97.9565 84.6296 97.9339C84.6315 97.9114 84.6379 97.8894 84.6483 97.8694C84.6587 97.8493 84.673 97.8315 84.6903 97.817C84.7342 97.7808 89.0639 94.0291 87.7254 89.639C87.7184 89.6177 87.7157 89.5951 87.7176 89.5727C87.7195 89.5504 87.7258 89.5286 87.7363 89.5088C87.7468 89.4889 87.7612 89.4714 87.7786 89.4573C87.796 89.4432 87.8161 89.4327 87.8376 89.4266C87.8809 89.413 87.9278 89.4173 87.968 89.4383C88.0082 89.4594 88.0385 89.4957 88.0521 89.5391C89.4606 94.1482 84.9551 98.0393 84.9114 98.078C84.8836 98.1025 84.8486 98.1173 84.8116 98.1201Z" fill="#DFDFDF"/>
<path d="M89.6884 106.809C89.6576 106.812 89.6268 106.805 89.6001 106.789C89.5801 106.778 89.5623 106.764 89.5478 106.747C89.5333 106.73 89.5223 106.71 89.5155 106.688C89.5087 106.667 89.5062 106.644 89.5081 106.622C89.51 106.599 89.5164 106.577 89.5267 106.557C89.5838 106.446 95.3594 95.1377 91.8177 86.9547C91.8027 86.9135 91.804 86.868 91.8214 86.8277C91.8388 86.7874 91.8709 86.7553 91.9111 86.738C91.9513 86.7207 91.9966 86.7196 92.0377 86.7347C92.0788 86.7499 92.1126 86.7802 92.132 86.8196C95.7393 95.1525 89.8881 106.601 89.8286 106.716C89.8156 106.742 89.7958 106.765 89.7712 106.781C89.7465 106.798 89.718 106.807 89.6884 106.809Z" fill="#DFDFDF"/>
<path d="M90.3191 79.2558C88.5897 79.3675 86.8533 79.2158 85.169 78.8059C85.1456 78.8015 85.1234 78.7923 85.1038 78.7789C85.0841 78.7654 85.0675 78.748 85.0549 78.7278C85.0424 78.7075 85.0342 78.6848 85.0308 78.6612C85.0274 78.6376 85.029 78.6136 85.0355 78.5906C85.0419 78.5677 85.053 78.5463 85.0681 78.5279C85.0832 78.5095 85.102 78.4944 85.1232 78.4837C85.1445 78.473 85.1677 78.4668 85.1915 78.4656C85.2152 78.4643 85.239 78.4681 85.2612 78.4766C85.329 78.4955 91.8904 80.306 97.2875 76.6185C97.306 76.6037 97.3273 76.5929 97.3501 76.5868C97.3729 76.5807 97.3967 76.5794 97.42 76.5829C97.4434 76.5865 97.4657 76.5949 97.4857 76.6075C97.5056 76.6201 97.5228 76.6367 97.5361 76.6563C97.5493 76.6759 97.5584 76.698 97.5627 76.7213C97.567 76.7446 97.5665 76.7685 97.5612 76.7916C97.5559 76.8146 97.5458 76.8363 97.5318 76.8553C97.5177 76.8743 97.4998 76.8902 97.4793 76.9019C95.348 78.3193 92.874 79.1327 90.3191 79.2558V79.2558Z" fill="#DFDFDF"/>
<path d="M28.5745 62.2218C28.5745 62.2218 29.5514 95.4021 30.2205 106.44C30.9964 119.233 32.399 130.287 33.02 136.315C33.0778 136.87 33.3276 137.387 33.7262 137.777C34.1247 138.167 34.6468 138.405 35.2018 138.449L116.498 144.869L121.442 107.617L111.279 61.0391L28.5745 62.2218Z" fill="#6B4D76"/>
<path d="M116.499 144.884C116.499 144.884 124.9 139.309 127.848 136.925C135.614 130.645 143.969 121.072 147.118 117.352C147.96 116.357 148.439 115.105 148.477 113.8C148.642 108.463 149.491 101.284 148.99 93.4789C148.161 80.6558 144.188 47.9804 144.188 47.9804L111.279 61.039C111.279 61.039 114.768 99.346 113.983 120.478C113.626 130.134 116.499 144.884 116.499 144.884Z" fill="#84688E"/>
<path d="M96.0148 113.979C95.9915 114.55 95.9976 114.565 95.5624 114.569C94.7073 114.574 93.8517 114.571 93.0003 114.552C92.5155 114.541 92.5171 114.525 92.4523 113.977C92.2299 111.679 91.9091 109.365 91.5864 107.061C91.4466 106.091 91.3764 105.127 91.2905 104.159C91.3005 103.856 91.2397 103.554 91.1128 103.279C90.6206 104.506 90.1519 105.617 89.7287 106.758C89.3467 107.781 88.8516 108.713 88.4479 109.716C88.4336 109.767 88.4091 109.814 88.3759 109.854C88.3428 109.895 88.3017 109.928 88.2552 109.952C88.2087 109.977 88.1578 109.991 88.1056 109.994C88.0534 109.998 88.0011 109.991 87.9517 109.973C87.0689 109.82 86.1847 109.523 85.3 109.463C84.9655 109.438 84.7842 109.118 84.5922 108.832C83.584 107.323 82.6955 105.721 81.8227 104.124C81.4696 103.471 81.104 102.823 80.749 102.18C80.5606 102.282 80.6348 102.444 80.6435 102.585C80.7496 104.289 80.8815 105.996 80.8589 107.69C80.8352 109.325 81.2386 110.951 81.5908 112.578C81.623 112.725 81.6629 112.871 81.6901 113.021C81.774 113.504 81.7603 113.531 81.3585 113.494C80.3264 113.371 79.2925 113.219 78.2788 113.103C77.9589 113.066 77.8546 112.872 77.777 112.53C77.3246 110.602 77.2204 108.608 77.4694 106.642C77.7221 104.572 77.8575 102.468 77.5476 100.286C77.3994 99.2219 77.2204 98.157 77.0594 97.0935C76.9603 96.4473 76.9074 95.8034 76.8674 95.1612C76.8412 94.7391 76.9895 94.5295 77.3033 94.4689C78.3968 94.2602 79.5141 94.2062 80.6226 94.3085C80.8594 94.3272 80.9926 94.4499 81.107 94.7252C81.7058 96.1159 82.3047 97.5092 82.9183 98.8912C83.7424 100.733 84.5939 102.562 85.5046 104.357C85.5836 104.514 85.6674 104.668 85.7586 104.817C85.8836 105.014 86.0091 105.014 86.1032 104.839C86.2593 104.549 86.3993 104.248 86.5604 103.955C87.6135 101.948 88.846 100.107 89.951 98.1504C90.1822 97.7508 90.3787 97.3276 90.5724 96.9021C90.6129 96.7845 90.6799 96.6778 90.7682 96.5903C90.8565 96.5029 90.9637 96.437 91.0814 96.3978C91.9758 96.0987 92.9064 95.9224 93.848 95.8738C94.2856 95.8671 94.3085 95.8656 94.3924 96.3895C94.618 97.9986 94.8489 99.6099 95.0368 101.229C95.2925 103.486 95.5304 105.744 95.7297 108C95.8344 109.187 95.8311 110.369 95.8895 111.554C95.9314 112.351 96.0464 113.17 96.0148 113.979Z" fill="#FFFEFE"/>
<path d="M75.483 99.6212C74.7292 98.1155 73.7729 96.7207 72.6408 95.4757C71.3482 94.046 69.8917 93.2763 69.0595 93.2382C65.3764 93.0694 61.9699 94.5451 60.6828 99.0066C59.1742 104.188 61.8719 110.415 66.571 112.424C68.8653 113.406 70.913 113.181 72.582 111.482C74.0227 109.984 75.1561 108.218 75.9181 106.282C76.7796 104.158 76.6297 101.915 75.483 99.6212ZM72.6563 104.199C71.8667 106.326 70.5561 107.859 68.7585 108.728C67.2968 109.438 65.9422 108.742 65.0365 106.905C64.494 105.801 64.235 104.644 64.138 102.88C64.1041 101.182 64.5295 99.2115 65.8053 97.7375C66.7603 96.6225 67.9532 96.3659 69.3521 97.1161C70.751 97.8663 71.8094 99.1102 72.4942 100.773C72.9806 101.853 73.0386 103.078 72.6563 104.199V104.199Z" fill="#FFFEFE"/>
<path d="M95.065 127.806C94.6094 125.086 93.6711 122.47 92.2946 120.081C91.9084 119.377 91.3828 118.76 90.75 118.267C89.7217 117.468 88.4297 117.089 87.1345 117.208C83.4266 117.464 80.8305 119.616 79.2388 123.38C78.6136 124.857 78.6645 126.498 79.236 128.232C79.6339 129.373 80.1415 130.472 80.7516 131.515C82.479 134.579 84.7912 136.218 87.663 136.478C88.8079 136.559 89.9548 136.352 90.9988 135.874C92.0428 135.396 92.9506 134.664 93.6393 133.743C94.2827 132.911 94.7424 131.952 94.9882 130.929C95.234 129.905 95.2602 128.841 95.065 127.806V127.806ZM90.6889 129.669C90.2982 131.622 89.3135 132.836 87.5939 133.105C86.6904 133.238 85.8554 132.825 85.1825 131.971C84.0248 130.508 83.256 128.774 82.948 126.932C82.7595 125.992 82.8025 125.02 83.0733 124.101C83.3441 123.181 83.8345 122.342 84.5019 121.655C84.9541 121.159 85.5135 120.773 86.1373 120.526C87.4169 120.018 89.2443 120.533 90.013 122.925C90.4278 124.269 90.6902 125.655 90.7952 127.058C90.8893 127.929 90.8535 128.809 90.6889 129.669V129.669Z" fill="#FFFEFE"/>
<path d="M63.7248 115.953C63.7614 117.02 63.7002 118.088 63.5419 119.144C63.2584 121.316 63.317 123.52 63.7153 125.674C63.9049 126.63 64.0293 127.598 64.0877 128.571C64.1609 130.282 63.7121 131.63 62.612 132.554C61.0959 133.83 59.3042 134.175 57.3626 134.006C55.5966 133.9 53.927 133.205 52.3347 132.023L52.112 131.859C51.5227 131.403 51.5163 131.383 51.7962 130.695C52.1859 129.773 52.6971 128.908 53.3161 128.122C53.5858 127.764 53.5964 127.771 53.9207 128.167C54.9739 129.452 56.178 130.24 57.5925 130.334C59.5473 130.469 60.7032 129.044 60.5714 126.679C60.4985 125.507 60.4977 125.494 59.6843 125.964C57.3365 127.291 53.9161 126.241 52.156 123.926C51.244 122.729 50.6704 121.332 50.1984 119.879C49.831 118.624 49.607 117.331 49.5308 116.025C49.5077 115.654 49.4846 115.283 49.4307 114.911C49.3825 114.588 49.4499 114.396 49.6896 114.297C50.647 113.972 51.6712 113.899 52.6651 114.083C52.8873 114.116 52.9347 114.3 52.948 114.515C53.0079 115.23 53.0576 115.946 53.0507 116.658C53.0051 117.611 53.1808 118.561 53.5641 119.433C54.1527 120.66 54.9913 121.42 56.073 121.763C56.5419 121.914 57.0497 121.887 57.4999 121.687C58.8651 121.114 59.6718 119.962 59.9717 118.238C60.1117 117.609 60.1944 116.967 60.2187 116.323C60.2189 115.955 60.3394 115.753 60.6344 115.678C61.4896 115.441 62.3788 115.353 63.2637 115.416C63.681 115.455 63.7001 115.474 63.7248 115.953Z" fill="#FFFEFE"/>
<path d="M77.9537 117.551C77.9763 119.165 77.8276 120.777 77.5104 122.36C77.1323 124.744 77.1848 127.177 77.6655 129.542C77.9821 131.207 78.1516 132.896 78.1718 134.59C78.1757 135.312 78.1708 135.315 77.5611 135.27C76.7224 135.21 75.8832 135.141 75.0444 135.078C74.823 135.061 74.6276 135.047 74.6569 134.655C74.7888 132.988 74.4351 131.297 74.1667 129.618C73.8843 127.838 73.6019 126.058 73.7431 124.295C73.8289 123.349 73.9749 122.409 74.1801 121.481C74.3909 120.467 74.3715 120.442 73.4489 120.392C72.7525 120.353 72.057 120.288 71.3621 120.234L71.3694 120.352C70.5304 120.286 69.6901 120.199 68.8529 120.161C68.3264 120.138 68.3415 120.175 68.2181 120.743C67.6547 123.089 67.9128 125.549 68.5263 128.041C68.8649 129.365 69.1778 130.689 69.3842 132.03C69.5054 132.763 69.5516 133.506 69.5223 134.248C69.5111 134.521 69.4178 134.627 69.1963 134.607C68.1923 134.523 67.1881 134.437 66.1869 134.358C65.9296 134.338 65.8452 134.176 65.8669 133.908C66.0685 131.633 65.4333 129.368 64.9597 127.11C64.4095 124.483 64.2294 121.918 64.6027 119.399C64.7439 118.458 65.0014 117.576 65.0948 116.607C65.1232 116.282 65.3484 116.319 65.5534 116.322L68.1162 116.35C71.0834 116.374 74.0515 116.399 77.0206 116.425C77.9275 116.43 77.9103 116.441 77.9537 117.551Z" fill="#FFFEFE"/>
<path d="M108.831 119.46C108.999 121.914 109.026 124.375 108.911 126.832C108.822 128.825 108.669 130.802 108.513 132.779C108.413 134.027 108.415 135.281 108.518 136.528C108.588 137.325 108.568 137.324 107.947 137.267C107.102 137.192 106.262 137.115 105.42 137.037C104.984 136.992 104.97 136.967 104.986 136.435C105.026 134.948 104.971 133.438 105.178 131.99C105.201 131.824 105.187 131.648 105.197 131.475C105.217 131.14 105.1 131.034 104.825 131.059C103.419 131.182 101.996 131.199 100.577 131.234C100.13 131.246 100.125 131.262 100.1 131.797C100.055 133.213 100.02 134.628 99.9749 136.043C99.9566 136.655 99.9517 136.658 99.412 136.628C98.6154 136.585 97.8159 136.537 97.0188 136.486C96.4581 136.447 96.4526 136.442 96.5075 135.802C96.6424 134.144 96.6586 132.479 96.5559 130.819C96.4136 129.017 96.1165 127.231 95.6679 125.481C95.1519 123.221 94.9344 120.903 95.0211 118.587C95.0311 118.213 95.1493 118.014 95.4285 117.932C96.353 117.654 97.3122 117.507 98.2776 117.498C98.5693 117.495 98.6865 117.608 98.7074 117.985C98.7674 118.949 98.8276 119.916 98.9057 120.882C98.9422 122.909 99.2684 124.941 99.6127 126.974C99.7218 127.617 99.7343 127.611 100.267 127.657C101.851 127.756 103.439 127.743 105.021 127.618C105.485 127.589 105.477 127.59 105.493 126.98C105.544 124.708 105.439 122.436 105.177 120.178C105.057 119.058 104.853 119.087 105.981 118.844C106.738 118.694 107.516 118.672 108.281 118.778C108.793 118.846 108.793 118.844 108.831 119.46Z" fill="#FFFEFE"/>
<path d="M49.9147 132.558C49.8627 132.793 49.7173 132.72 49.6066 132.711C48.3993 132.612 47.1933 132.492 45.9878 132.423C45.6509 132.4 45.4805 132.213 45.2854 131.876C43.9226 129.485 42.4332 127.199 40.9338 124.917C40.5856 124.384 40.559 124.409 40.1551 124.75C39.985 124.894 39.8528 125.077 39.7701 125.284C39.6874 125.491 39.6568 125.716 39.6809 125.938C39.7401 127.711 39.879 129.49 40.0437 131.272C40.1197 132.082 40.1403 132.083 39.4523 132.057C38.718 132.028 37.9868 132.007 37.2519 131.968C36.8229 131.945 36.8115 131.928 36.7578 131.395C36.5281 129.144 36.2905 126.891 36.0812 124.639C35.9523 123.226 36.0868 121.849 36.0767 120.453C36.0507 118.513 36.1542 116.595 36.0093 114.637C35.9814 114.189 36.101 113.971 36.4181 113.841C37.2145 113.565 38.0553 113.44 38.8974 113.474C39.1867 113.471 39.2424 113.709 39.266 113.964C39.4342 115.844 39.79 117.733 39.7133 119.587C39.7064 119.723 39.6698 119.875 39.7983 120.005C39.9701 120.051 40.0469 119.884 40.1384 119.791C41.3981 118.572 42.487 117.187 43.3753 115.673C43.7416 115.057 44.1406 114.473 44.5096 113.859C44.5738 113.721 44.6819 113.609 44.8168 113.54C44.9516 113.472 45.1056 113.45 45.2543 113.479C46.1591 113.588 47.0431 113.829 47.8779 114.196C48.229 114.364 48.2646 114.483 48.0388 114.764C47.1148 115.926 46.4249 117.31 45.6836 118.648C45.1027 119.718 44.3902 120.712 43.5627 121.605C43.2144 121.976 43.2165 122.009 43.5594 122.499C45.529 125.34 47.3213 128.336 49.1308 131.321C49.3931 131.749 49.662 132.161 49.9147 132.558Z" fill="#FFFEFE"/>
<path d="M59.1311 93.0472C58.9513 94.2732 58.9214 95.4385 58.8394 96.589C58.8126 96.94 58.6225 96.9723 58.3876 96.9844C57.4412 97.0433 56.4983 97.12 55.5507 97.161C54.9767 97.1967 54.9407 97.1116 54.9786 97.9671C55.0462 99.5475 55.1987 101.133 55.3921 102.718C55.5534 104.033 55.6861 105.343 55.742 106.652C55.7998 108.032 55.9143 109.42 55.9823 110.8C56.0428 111.772 56.0149 111.776 55.2349 111.671C54.2913 111.543 53.3439 111.41 52.3929 111.272C51.8502 111.193 51.8183 111.175 51.9165 110.532C52.1021 109.214 52.1905 107.883 52.1811 106.552C52.1999 104.943 52.0946 103.334 51.8662 101.741C51.681 100.453 51.6062 99.1684 51.5184 97.882C51.4759 97.1989 51.4749 97.1835 50.8966 97.1502C49.5495 97.0671 48.2107 97.0785 46.8596 96.9315C46.2175 96.861 46.2132 96.8741 46.1468 96.095C46.0845 95.0915 46.0766 94.0855 46.1231 93.0813C46.1346 92.5669 46.1423 92.5664 46.5769 92.5959C47.5585 92.6889 48.5395 92.7742 49.5248 92.926C51.4271 93.1958 53.3498 93.2936 55.2695 93.2182C56.5205 93.1558 57.762 93.1042 59.1311 93.0472Z" fill="#FFFEFE"/>
<path d="M12.7889 85.7667L28.5746 62.2217L111.28 61.039L101.735 97.8227C101.735 97.8227 87.0193 96.8459 82.592 96.446C73.5125 95.6141 50.1083 93.3315 41.0321 92.5122C32.2588 91.7022 12.7889 85.7667 12.7889 85.7667Z" fill="#876793"/>
<path d="M119.459 127.267C119.399 125.1 119.979 122.964 121.125 121.127C127.728 110.186 132.719 99.9699 136.436 90.0253C137.472 87.2513 138.527 84.5712 139.817 82.223C140.277 81.3828 140.738 80.5605 141.324 79.9796C142.204 79.0978 143.089 78.2183 144.032 79.0816C144.792 79.7765 145.317 82.2479 145.121 83.909C144.953 85.3166 144.502 86.5466 144.021 87.7939C141.991 93.0774 139.452 98.2872 136.942 104.009C134.027 110.655 130.831 117.744 127.401 125.383C126.243 127.967 125.003 130.353 122.734 130.71C120.464 131.067 119.518 130.324 119.459 127.267Z" fill="white"/>
<path d="M146.089 107.86C146.1 115.43 142.018 119.804 138.928 120.358C136.231 120.842 134.694 116.235 135.69 110.639C136.011 108.856 136.513 107.112 137.187 105.432C138.958 100.974 142.271 99.0929 144.177 101.165C145.507 102.623 146.084 104.899 146.089 107.86ZM139.013 111.968C139.026 112.188 139.068 112.565 139.111 112.935C139.328 114.853 139.884 115.345 140.976 114.632C142.178 113.851 142.841 112.538 143.011 110.619C143.152 109.349 143.03 108.064 142.651 106.843C142.296 105.789 141.666 105.597 140.77 106.496C139.567 107.703 138.982 109.411 139.013 111.968Z" fill="white"/>
<path d="M132.437 92.4804C132.623 96.7861 131.733 100.676 128.699 104.013C124.24 108.914 118.482 107.629 117.536 100.704C117.1 97.3418 117.436 93.9239 118.518 90.7118C120.085 85.8937 123.498 82.679 126.665 82.7798C129.962 82.8827 131.856 85.4153 132.292 90.0316C132.368 90.8359 132.389 91.6615 132.437 92.4804ZM128.661 94.4387C128.599 90.9754 127.501 89.2999 125.534 89.7973C123.119 90.4099 121.65 92.6074 121.742 95.604C121.847 99.1082 123.569 100.686 126.098 99.7605C127.826 99.1264 128.706 97.2636 128.661 94.4387Z" fill="white"/>
<path d="M111.28 61.039L128.239 95.2304C134.199 94.2456 145.342 82.6085 153 80.1389C156.605 78.9719 161.353 75.2195 161.353 75.2195L144.188 47.9804L111.28 61.039Z" fill="#A58DAD"/>
<path d="M131.422 27.4584L130.885 28.0055C128.942 30.0398 122.169 37.2108 118.147 42.4693C117.143 43.7749 116.261 45.4427 115.342 47.0665C114.422 48.7366 113.442 50.3642 112.289 51.4968C110.085 53.6628 116.647 58.3114 113.501 58.05C112.272 57.948 111.035 57.9862 109.815 58.1639C107.94 58.4481 106.12 59.0169 104.416 59.8509C102.367 60.826 101.002 61.8612 100.449 61.9521C99.8033 62.0257 93.5231 62.1418 85.2481 62.2614C79.2022 62.3552 72.1036 62.4478 65.365 62.5231C63.4153 62.552 61.5057 62.5681 59.658 62.5907L58.4526 62.6041C55.5585 62.643 52.8531 62.6701 50.4628 62.6982L50.0126 62.7057L48.6716 62.7224L48.2162 62.7302L48.1091 62.7368C47.7685 62.7375 47.433 62.7378 47.1057 62.7454C47.0813 62.7503 47.0564 62.7518 47.0317 62.75L45.6448 62.7695C45.5962 62.7689 45.5476 62.7719 45.4994 62.7786L44.6546 62.7849L44.6062 62.7879C44.4523 62.7847 44.3039 62.7862 44.1581 62.7902C43.9174 62.7897 43.69 62.7988 43.4749 62.7993C43.4352 62.8056 43.3951 62.8081 43.355 62.8068L42.8583 62.8094C42.4771 62.8152 42.1291 62.8214 41.8345 62.8192L41.4456 62.8254C41.0923 62.8269 40.8494 62.8343 40.7364 62.8285C39.8146 56.4969 39.9188 50.0579 41.0451 43.7604C41.57 40.8219 42.3447 37.9339 43.3608 35.1281C44.4635 32.0611 45.9138 29.1314 47.6833 26.3966C47.9175 26.0456 48.1523 25.7022 48.3868 25.3563C48.8171 24.7388 49.2685 24.1328 49.7366 23.5464C50.5585 22.4976 51.4451 21.5015 52.3911 20.5638C53.4211 19.5305 54.5856 18.6416 55.8531 17.9212C55.9492 17.8613 56.0534 17.806 56.15 17.7538C56.7425 17.4325 57.3602 17.1604 57.9971 16.9403C58.1626 16.8837 58.3182 16.8329 58.484 16.7815C59.3716 16.509 60.2873 16.3391 61.2134 16.2752C62.7286 16.1784 64.2499 16.2964 65.7324 16.6257L66.1685 16.7193C66.283 16.7481 66.3998 16.7742 66.5145 16.8056C71.3598 17.9961 76.4654 20.8579 81.9644 23.2919C82.6966 23.6161 83.4334 23.9324 84.1821 24.2351C85.7409 24.881 87.331 25.448 88.9465 25.9341C90.1437 26.2964 91.3592 26.5953 92.5877 26.8297C93.2122 26.9475 93.8358 27.05 94.4704 27.1235C95.8882 27.2779 97.3148 27.3367 98.7404 27.2994V27.2994C99.1958 27.2916 99.6634 27.2753 100.138 27.2509C101.101 27.2115 102.096 27.1445 103.123 27.0651C105.531 26.8741 108.072 26.5824 110.614 26.2753C118.139 25.378 125.606 24.3815 129.22 25.4946C129.26 25.4993 129.299 25.5108 129.335 25.5286C129.757 25.6552 130.156 25.8479 130.518 26.0996C130.751 26.2545 130.951 26.4544 131.106 26.6877C131.261 26.9211 131.369 27.1831 131.422 27.4584V27.4584Z" fill="url(#paint0_linear)"/>
<path d="M113.927 38.8898C113.932 38.9382 113.935 38.9869 113.936 39.0357L114.063 39.0277L113.927 38.8898Z" fill="#DC8061"/>
<path d="M173.205 78.5935C173.395 79.8325 172.999 80.7895 171.96 81.468C171.822 81.5562 172.038 81.5684 172.107 81.5256C172.619 81.2321 173.025 80.7837 173.268 80.2445C173.51 79.7054 173.576 79.1032 173.457 78.5239C173.452 78.4522 173.2 78.5116 173.205 78.5935Z" fill="#C2B59B"/>
<path d="M176.292 79.6752C176.275 81.0093 175.686 82.2813 174.415 82.7714C174.255 82.8327 174.401 82.9212 174.511 82.8784C175.847 82.3586 176.519 81.0634 176.536 79.6421C176.529 79.5372 176.294 79.5903 176.282 79.6759L176.292 79.6752Z" fill="#C2B59B"/>
<path d="M161.34 41.4115C160.988 41.2603 160.626 41.1301 160.258 41.0216L160.624 40.6419C160.931 40.8243 161.18 41.0914 161.34 41.4115V41.4115Z" fill="#684E35"/>
<path d="M180.27 75.7011C180.471 77.5249 179.998 80.2561 179.205 82.0802C178.726 83.1912 176.163 84.8892 175.936 81.77C175.269 83.3987 171.978 83.7782 173.306 80.6752C168.472 85.2986 170.11 72.2782 169.718 69.2386C169.714 69.1644 169.71 69.103 169.686 69.0455C169.278 66.9404 168.53 64.9161 167.472 63.0528C165.701 59.9116 163.047 57.2311 159.72 56.3159C160.351 53.4515 163.001 44.4312 161.353 41.4082C168.908 44.6619 175.595 58.4816 178.633 68.4551C179.321 70.6053 179.843 72.8052 180.195 75.0354C180.215 75.273 180.245 75.4946 180.27 75.7011Z" fill="url(#paint1_linear)"/>
<path d="M174.177 43.5146C174.177 43.5146 169.912 53.4676 159.961 61.3809C154.789 65.5549 148.728 68.4804 142.248 69.9315C122.383 74.3424 107.8 62.8685 104.41 59.8666C103.914 59.4326 103.657 59.1738 103.657 59.1738C105.894 56.6591 107.776 53.8484 109.25 50.8203C110.703 47.779 111.774 44.2169 111.434 40.6425C111.423 40.4736 111.4 40.3081 111.377 40.1477C110.775 35.5537 110.52 30.9205 110.615 26.288C110.792 19.8845 111.881 14.3335 114.697 13.7062C118.83 12.7838 126.895 22.5394 129.233 25.4989C129.478 25.8124 129.661 26.0424 129.77 26.1846C129.785 26.2104 129.803 26.2343 129.823 26.2558L129.887 26.3391L130.531 26.1039C131.931 25.5889 133.357 25.1453 134.802 24.7747C136.229 24.5013 137.672 24.3256 139.123 24.2489L139.179 23.9501C139.601 21.8127 142.393 8.85406 147.781 7.64805C153.659 6.3396 156.677 16.489 159.371 25.1613C160.076 27.4289 161.414 29.7521 163.027 31.9657C163.481 32.5949 163.959 33.2097 164.453 33.8185C166.266 36.0273 168.221 38.1148 170.305 40.0676C172.506 42.1881 174.177 43.5146 174.177 43.5146Z" fill="#FFDD28"/>
<path d="M111.509 18.4762C110.317 23.3659 110.453 31.0597 111.057 37.2321C115.636 32.9894 118.576 31.2963 122.427 29.6029C117.748 22.5181 115.018 19.8835 111.509 18.4762Z" fill="#684E35"/>
<path d="M144.523 23.8178C149.143 23.4455 155.282 23.2482 159.022 24.1609C156.986 17.587 154.71 10.4708 151.129 8.24351C143.495 11.6722 144.523 23.8178 144.523 23.8178Z" fill="#684E35"/>
<path d="M126.33 36.8927L129.248 38.013C129.248 38.013 126.958 42.0358 121.459 42.1778L123.822 40.038L123.842 40.0213L123.868 39.994L124.158 39.7191C124.738 39.1692 125.242 38.5446 125.658 37.8615C125.664 37.8567 125.669 37.8513 125.673 37.8452L125.687 37.8264L126.33 36.8927Z" fill="#684E35"/>
<path d="M147.228 60.9481C149.803 60.2742 150.294 58.3253 150.315 58.2419C150.328 58.1654 150.312 58.0867 150.27 58.0217C150.227 57.9567 150.162 57.9104 150.086 57.8922C150.011 57.8739 149.932 57.8852 149.864 57.9236C149.797 57.962 149.747 58.0247 149.724 58.0989C149.706 58.1694 149.281 59.7751 147.074 60.3593C144.935 60.9265 143.642 57.4683 143.629 57.4331C143.616 57.3957 143.595 57.3613 143.568 57.3319C143.541 57.3025 143.509 57.2788 143.473 57.2619C143.437 57.2451 143.398 57.2355 143.358 57.2338C143.318 57.232 143.279 57.2382 143.241 57.2518C143.204 57.2654 143.17 57.2863 143.14 57.3132C143.111 57.3401 143.088 57.3725 143.071 57.4086C143.054 57.4447 143.044 57.4838 143.043 57.5236C143.041 57.5634 143.047 57.6031 143.061 57.6405C143.12 57.8063 144.563 61.6533 147.228 60.9481Z" fill="#684E35"/>
<path d="M141.647 62.4253C144.315 61.72 143.673 57.6588 143.644 57.486C143.63 57.4064 143.586 57.3355 143.52 57.2887C143.454 57.2418 143.373 57.2228 143.293 57.2357C143.215 57.2509 143.145 57.2959 143.098 57.3614C143.052 57.427 143.032 57.508 143.044 57.5876C143.046 57.6234 143.624 61.2725 141.49 61.8368C139.281 62.4211 138.123 61.2297 138.072 61.179C138.016 61.1213 137.94 61.0878 137.86 61.0856C137.78 61.0834 137.702 61.1127 137.643 61.1672C137.585 61.2219 137.551 61.2976 137.548 61.3777C137.545 61.4578 137.574 61.5357 137.629 61.5943C137.687 61.6575 139.07 63.1045 141.647 62.4253Z" fill="#684E35"/>
<path d="M143.236 57.1309C142.533 57.3159 140.701 56.2768 139.454 55.4891C139.313 55.3998 139.199 55.2743 139.122 55.1258C139.046 54.9773 139.01 54.811 139.02 54.6442C139.029 54.4774 139.082 54.316 139.175 54.1769C139.267 54.0378 139.394 53.9259 139.544 53.8528C141.105 52.8138 142.965 52.3224 144.835 52.4551C145.001 52.4441 145.167 52.478 145.317 52.5531C145.466 52.6282 145.592 52.7419 145.682 52.8825C145.773 53.023 145.824 53.1852 145.831 53.3523C145.838 53.5194 145.8 53.6853 145.722 53.8329C145.035 55.134 143.941 56.9431 143.236 57.1309Z" fill="#D23518"/>
<path d="M145.792 53.1095C143.51 53.4804 141.252 53.9828 139.028 54.6142C139.047 54.455 139.103 54.3027 139.193 54.1701C139.283 54.0376 139.403 53.9287 139.544 53.8528C141.105 52.8138 142.965 52.3224 144.835 52.4551C145.043 52.447 145.249 52.5062 145.421 52.624C145.593 52.7418 145.723 52.912 145.792 53.1095V53.1095Z" fill="#F56C56"/>
<path d="M150.868 49.6783C154.118 49.4759 156.589 46.6694 156.386 43.4098C156.183 40.1501 153.384 37.6717 150.133 37.874C146.883 38.0763 144.412 40.8828 144.615 44.1425C144.818 47.4022 147.617 49.8806 150.868 49.6783Z" fill="white"/>
<path d="M132.851 54.5479C136 53.7152 137.878 50.48 137.047 47.3221C136.215 44.1641 132.989 42.2791 129.84 43.1118C126.691 43.9445 124.812 47.1796 125.644 50.3376C126.475 53.4956 129.702 55.3806 132.851 54.5479Z" fill="white"/>
<path d="M151.557 40.5873C152.352 40.3773 153.189 40.3833 153.981 40.6048C154.773 40.8262 155.493 41.2552 156.065 41.8475C156.112 41.9884 156.162 42.1291 156.199 42.2732C156.397 43.0237 156.446 43.8059 156.342 44.5752C156.239 45.3445 155.985 46.0858 155.596 46.7566C155.206 47.4274 154.689 48.0146 154.073 48.4846C153.457 48.9547 152.755 49.2984 152.006 49.496C151.86 49.5359 151.716 49.5629 151.569 49.59C150.575 49.3313 149.695 48.7494 149.067 47.9355C148.438 47.1216 148.096 46.1216 148.095 45.0923C148.093 44.0629 148.432 43.0622 149.059 42.247C149.685 41.4318 150.564 40.8481 151.557 40.5873V40.5873Z" fill="#232E3D"/>
<path d="M132.408 45.6523C133.203 45.4425 134.04 45.4486 134.832 45.6701C135.625 45.8915 136.344 46.3203 136.917 46.9124C136.964 47.0533 137.013 47.1915 137.051 47.3381C137.249 48.0888 137.297 48.8712 137.194 49.6407C137.09 50.4101 136.836 51.1515 136.446 51.8223C136.057 52.4932 135.539 53.0803 134.923 53.5503C134.306 54.0202 133.604 54.3637 132.855 54.5611C132.711 54.6009 132.565 54.628 132.42 54.6549C131.432 54.3928 130.557 53.8103 129.933 52.9982C129.308 52.186 128.969 51.1898 128.968 50.1645C128.967 49.1392 129.303 48.1423 129.926 47.329C130.548 46.5157 131.421 45.9316 132.409 45.6676L132.408 45.6523Z" fill="#232E3D"/>
<path d="M151.461 43.6111C151.488 43.715 151.546 43.8086 151.626 43.8799C151.706 43.9512 151.805 43.997 151.912 44.0116C152.018 44.0261 152.126 44.0088 152.222 43.9618C152.319 43.9148 152.399 43.8401 152.453 43.7473C152.507 43.6545 152.532 43.5477 152.526 43.4404C152.519 43.3331 152.481 43.2302 152.417 43.1446C152.352 43.059 152.263 42.9945 152.162 42.9595C152.06 42.9244 151.951 42.9202 151.847 42.9475C151.778 42.9656 151.714 42.9971 151.657 43.0403C151.601 43.0834 151.553 43.1374 151.517 43.199C151.481 43.2606 151.458 43.3287 151.448 43.3994C151.438 43.4701 151.443 43.5421 151.461 43.6111V43.6111Z" fill="white"/>
<path d="M132.34 48.6691C132.367 48.7731 132.424 48.8666 132.505 48.9379C132.585 49.0092 132.684 49.055 132.791 49.0696C132.897 49.0842 133.005 49.0669 133.101 49.0198C133.198 48.9728 133.278 48.8982 133.332 48.8054C133.386 48.7125 133.411 48.6058 133.405 48.4985C133.398 48.3912 133.36 48.2882 133.295 48.2026C133.231 48.117 133.142 48.0526 133.041 48.0175C132.939 47.9824 132.83 47.9783 132.726 48.0055C132.657 48.0237 132.593 48.0552 132.536 48.0983C132.479 48.1415 132.432 48.1954 132.396 48.257C132.36 48.3187 132.337 48.3868 132.327 48.4575C132.317 48.5282 132.322 48.6001 132.34 48.6691V48.6691Z" fill="white"/>
<path d="M155.657 36.8904C154.32 36.8341 152.993 36.6422 151.695 36.3178C149.614 35.7848 148.528 34.8072 148.528 34.8072L146.44 37.3434C146.44 37.3434 150.624 39.8436 155.657 36.8904Z" fill="#684E35"/>
<path d="M116.454 64.387C114.256 51.9598 98.2861 47.4039 94.0809 49.9976C77.845 60.0152 104.762 63.9719 105.267 65.9052C106.514 70.6842 105.731 76.0775 112.712 73.4034C115.662 72.2773 116.465 64.4403 116.454 64.387Z" fill="#684E35"/>
<path d="M107.804 69.5073C108.511 70.7809 107.883 72.5048 106.418 72.7578C106.289 72.7787 106.231 72.9569 106.395 72.9262C106.768 72.8579 107.119 72.7008 107.419 72.4681C107.719 72.2354 107.958 71.9339 108.118 71.5889C108.277 71.244 108.351 70.8657 108.334 70.4859C108.317 70.1061 108.21 69.7359 108.02 69.4065C107.969 69.3172 107.736 69.4062 107.797 69.5129L107.804 69.5073Z" fill="#C83F61"/>
<path d="M111.098 70.1394C111.638 71.6954 111.16 73.7616 109.482 74.3309C109.339 74.3808 109.373 74.5072 109.515 74.4572C111.288 73.8538 111.935 71.7822 111.34 70.0705C111.311 69.9824 111.083 70.0557 111.088 70.1401L111.098 70.1394Z" fill="#C83F61"/>
<path d="M113.953 68.7778C114.39 69.2069 114.657 69.7808 114.703 70.3923C114.749 71.0039 114.572 71.6113 114.204 72.1011C114.152 72.1736 114.388 72.1384 114.426 72.0872C114.808 71.5868 114.993 70.9634 114.947 70.3348C114.902 69.7063 114.628 69.1163 114.178 68.6765C114.131 68.6255 113.906 68.7165 113.953 68.7675L113.953 68.7778Z" fill="#C83F61"/>
<path d="M171.973 80.1161C172.122 81.5631 170.866 82.8998 169.423 82.5556C169.298 82.5248 169.174 82.6635 169.335 82.7023C169.706 82.7885 170.092 82.7838 170.46 82.6886C170.828 82.5934 171.169 82.4106 171.451 82.1556C171.734 81.9006 171.952 81.5809 172.085 81.2237C172.219 80.8665 172.264 80.4822 172.218 80.1034C172.212 80.0011 171.955 79.9914 171.963 80.1193L171.973 80.1161Z" fill="#C83F61"/>
<path d="M174.755 81.9899C174.64 83.6329 173.392 85.3438 171.627 85.2071C171.477 85.1933 171.457 85.323 171.609 85.3341C173.477 85.4746 174.883 83.8309 175.008 82.0229C175.003 81.9308 174.763 81.9021 174.75 81.9902L174.755 81.9899Z" fill="#C83F61"/>
<path d="M91.5528 90.4332L91.4862 90.3911C96.0586 82.4248 99.8295 77.1742 104.095 72.8379C109.132 67.7192 114.787 64.0284 121.894 61.2232C122.349 61.0434 122.826 60.8468 123.333 60.6405C126.846 59.1993 131.222 57.4066 134.304 58.4552L134.281 58.5311C131.224 57.4911 126.864 59.2779 123.363 60.7132C122.864 60.9214 122.379 61.1185 121.922 61.2985C107.226 67.0982 99.4059 76.746 91.5528 90.4332Z" fill="white"/>
<path d="M100.542 93.2689L100.471 93.2349C104.241 84.9255 108.622 77.929 113.495 72.4429C119.694 65.4618 126.538 61.1576 133.83 59.6507L133.835 59.73C117.362 63.1362 106.637 79.853 100.542 93.2689Z" fill="white"/>
<path d="M109.63 94.0823L109.554 94.0536C111.584 88.8473 115.017 81.1753 119.843 74.1974C125.102 66.6069 130.667 61.82 136.386 59.9719L136.408 60.0475C130.707 61.892 125.157 66.6549 119.907 74.2422C115.089 81.2145 111.658 88.8812 109.63 94.0823Z" fill="white"/>
<path d="M153.36 51.57L153.31 51.5089C158.039 47.4212 165.334 46.3662 174.991 48.3744C181.302 49.6869 188.353 52.2118 196.549 56.0933L196.518 56.1672C188.337 52.2872 181.281 49.7653 174.976 48.4524C165.345 46.4503 158.072 47.4988 153.36 51.57Z" fill="white"/>
<path d="M153.266 53.5972L153.228 53.5276C158.379 50.6927 165.399 50.5742 174.099 53.1762C181.27 55.3186 188.359 58.9352 193.732 61.8471L193.695 61.9162C188.325 59.0092 181.252 55.3942 174.076 53.2521C165.399 50.6564 158.396 50.7738 153.266 53.5972Z" fill="white"/>
<path d="M150.988 56.1275L150.943 56.061C152.785 54.7187 155.22 54.1716 158.176 54.437C160.693 54.663 163.658 55.4852 166.99 56.8804C173.059 59.4202 179.245 63.3832 183.337 66.0075C184.428 66.7101 185.372 67.3114 186.152 67.7893L186.113 67.856C185.331 67.391 184.388 66.7742 183.295 66.0744C179.205 63.4524 173.022 59.4918 166.961 56.9541C159.746 53.9463 154.371 53.6568 150.988 56.1275Z" fill="white"/>
<path d="M177.916 81.8624C178.365 83.1186 177.982 84.3291 176.832 85.0274C176.753 85.0759 176.985 85.136 177.039 85.1044C177.587 84.795 178.002 84.2952 178.207 83.6995C178.412 83.1037 178.393 82.4532 178.152 81.8709C178.127 81.8056 177.891 81.7997 177.908 81.8629L177.916 81.8624Z" fill="#C83F61"/>
<path d="M57.9567 48.4683C54.8675 51.5037 52.8398 54.889 50.904 58.3509C50.6731 58.7556 50.4425 59.1655 50.2116 59.5702C49.018 61.7285 47.5464 63.7198 45.8347 65.4929C37.6183 73.9198 25.2859 74.7696 15.0122 66.7258C7.27712 60.6659 2.95082 52.4676 1.64331 42.7356C1.3396 40.1834 1.60542 37.5956 2.42152 35.1595C3.15005 32.8746 3.98175 30.5191 6.74643 30.252C9.78377 29.9628 12.512 30.9204 14.3151 33.5973C16.2487 36.4767 16.9821 39.8648 18.0893 43.0885C19.3254 46.6944 20.4744 50.3007 22.4829 53.6017C24.4622 56.8455 27.2672 58.4199 30.1813 58.7419C33.194 59.086 36.3162 58.1032 38.7341 56.2551C39.5611 55.6249 40.334 54.9265 41.0448 54.167C42.1198 53.0156 43.0981 51.777 43.9695 50.4639C45.0928 48.8016 46.4088 47.3149 48.126 46.2654C49.0881 45.6765 50.0879 45.1571 50.917 46.7517C51.4497 47.7793 52.7662 48.0286 53.8902 48.1873C55.0945 48.3614 56.3346 48.3715 57.9567 48.4683Z" fill="#FFDD28"/>
<path d="M180.181 75.049C177.329 72.9057 174.226 71.1195 170.943 69.7299C170.525 69.5522 170.113 69.3895 169.706 69.2419C169.701 69.1677 169.697 69.1063 169.673 69.0487C169.266 66.9436 168.518 64.9194 167.459 63.0561C171.338 64.5059 175.074 66.3146 178.618 68.4585C179.307 70.612 179.829 72.8153 180.181 75.049Z" fill="#FFDD28"/>
<path d="M84.1823 24.2351C80.7329 35.4728 75.4466 47.8933 72.4669 46.9693C68.5034 45.7521 74.9703 22.8797 66.5142 16.7979C71.3595 17.9885 76.4651 20.8502 81.9641 23.2842C82.6967 23.6161 83.4335 23.9324 84.1823 24.2351Z" fill="#684E35"/>
<path d="M139.215 40.2487C137.236 40.7546 134.675 34.388 130.885 28.008C130.541 27.4182 130.181 26.8293 129.812 26.2488C129.792 26.2272 129.774 26.2033 129.759 26.1776C129.625 25.9573 129.476 25.7432 129.337 25.5233C129.759 25.6517 130.158 25.8452 130.52 26.0968C131.92 25.5819 133.346 25.1382 134.791 24.7677C136.218 24.4943 137.661 24.3186 139.112 24.2419L139.168 23.9431C139.524 31.5513 141.406 39.6937 139.215 40.2487Z" fill="#684E35"/>
<path d="M103.126 27.0624C102.517 29.21 101.523 31.2283 100.193 33.0184C96.9394 37.2865 91.1905 39.9301 89.5793 38.4843C87.892 36.9688 91.8887 32.056 92.5802 26.8302C93.2047 26.948 93.8281 27.0478 94.4629 27.1239C95.8833 27.2794 97.3124 27.3389 98.7407 27.3019V27.3019C99.1961 27.2941 99.6637 27.2779 100.139 27.2535C101.104 27.2139 102.099 27.1468 103.126 27.0624Z" fill="#684E35"/>
<path d="M170.269 40.0749C167.097 42.8407 163.207 44.2873 161.929 43.1367C160.495 41.8545 163.153 38.1191 164.423 33.8255C166.234 36.0343 168.187 38.1219 170.269 40.0749V40.0749Z" fill="#684E35"/>
<path d="M116.117 51.7413C115.178 52.827 112.227 52.3533 109.25 50.8101C110.702 47.7688 111.773 44.2067 111.433 40.6323L111.684 40.555C113.029 45.649 117.604 50.0282 116.117 51.7413Z" fill="#684E35"/>
<path d="M45.8464 65.5127C43.8948 66.4666 41.7958 67.0809 39.6388 67.3297C37.4936 67.5505 33.7988 67.9346 31.6622 65.7022C30.1285 64.1026 29.775 61.5512 30.1687 58.7427C33.1815 59.0868 36.3037 58.104 38.7215 56.2559C39.5485 55.6257 40.3215 54.9273 41.0323 54.1678C44.9563 57.2623 49.2079 57.1826 50.9044 58.3534C51.0876 58.4648 51.2463 58.6122 51.3712 58.7867C51.4961 58.9612 51.5844 59.1593 51.631 59.3689C52.0169 61.1658 49.4559 63.7599 45.8464 65.5127Z" fill="#684E35"/>
<path d="M63.1199 40.6527C62.0353 49.6013 56.2808 58.6146 49.9871 62.7098C49.363 62.7229 48.7666 62.7267 48.1959 62.734L48.0887 62.7406C47.7482 62.7413 47.4132 62.7493 47.0853 62.7492C47.061 62.7541 47.0361 62.7556 47.0114 62.7538C46.5305 62.7632 46.062 62.7666 45.6245 62.7733C45.5758 62.7726 45.5272 62.7757 45.4791 62.7824L44.6343 62.7887L44.6062 62.7905L44.1713 62.797C44.0097 62.7942 43.8562 62.7961 43.7028 62.8005C43.6237 62.8054 43.5497 62.81 43.4758 62.8146C43.4361 62.8209 43.396 62.8234 43.3558 62.8221L42.8592 62.8247C42.4779 62.8305 42.13 62.8367 41.8354 62.8345L41.4465 62.8408C41.0931 62.8422 40.8503 62.8496 40.7372 62.8438C39.8155 56.5122 39.9197 50.0732 41.046 43.7757C41.5708 40.8372 42.3456 37.9492 43.3617 35.1434C44.4643 32.0765 45.9147 29.1468 47.6841 26.4119C47.9184 26.0609 48.1531 25.7175 48.3877 25.3716C48.8179 24.7541 49.2694 24.1482 49.7374 23.5617C50.5586 22.5077 51.4448 21.5064 52.391 20.5637C53.421 19.5305 54.5855 18.6416 55.853 17.9212C61.4405 23.465 64.0876 32.6231 63.1199 40.6527Z" fill="#684E35"/>
</g>
<defs>
<linearGradient id="paint0_linear" x1="39.2036" y1="41.7023" x2="131.949" y2="35.9291" gradientUnits="userSpaceOnUse">
<stop offset="0.22" stop-color="#FDDC2E"/>
<stop offset="1" stop-color="#FFED8B"/>
</linearGradient>
<linearGradient id="paint1_linear" x1="21231" y1="19534.6" x2="19467.5" y2="17398.6" gradientUnits="userSpaceOnUse">
<stop offset="0.22" stop-color="#49648C"/>
<stop offset="1" stop-color="#684D35"/>
</linearGradient>
<clipPath id="clip0">
<rect width="270.178" height="135.089" fill="white" transform="translate(0 16.7853) rotate(-3.56189)"/>
</clipPath>
</defs>
</svg>
