<svg width="442" height="135" viewBox="0 0 442 135" fill="none" xmlns="http://www.w3.org/2000/svg">
<g filter="url(#filter0_d)">
<path d="M207.051 33.808C204.235 32.176 201.291 31.136 198.219 30.688L192.747 58H184.923L190.443 30.544C186.795 30.928 183.579 31.968 180.795 33.664L178.779 27.808C180.859 26.528 183.323 25.552 186.171 24.88C189.019 24.176 191.899 23.824 194.811 23.824C197.819 23.824 200.651 24.192 203.307 24.928C205.995 25.632 208.379 26.656 210.459 28L207.051 33.808ZM226.006 58.576C222.646 58.576 219.734 57.968 217.27 56.752C214.806 55.536 212.918 53.824 211.606 51.616C210.294 49.408 209.638 46.864 209.638 43.984C209.638 40.176 210.502 36.752 212.23 33.712C213.99 30.64 216.438 28.224 219.574 26.464C222.742 24.704 226.358 23.824 230.422 23.824C233.782 23.824 236.694 24.432 239.158 25.648C241.622 26.864 243.51 28.576 244.822 30.784C246.134 32.992 246.79 35.536 246.79 38.416C246.79 42.224 245.91 45.664 244.15 48.736C242.422 51.776 239.974 54.176 236.806 55.936C233.67 57.696 230.07 58.576 226.006 58.576ZM226.678 51.952C229.142 51.952 231.302 51.36 233.158 50.176C235.014 48.992 236.438 47.408 237.43 45.424C238.422 43.44 238.918 41.248 238.918 38.848C238.918 36.288 238.118 34.256 236.518 32.752C234.918 31.216 232.662 30.448 229.75 30.448C227.286 30.448 225.126 31.04 223.27 32.224C221.414 33.408 219.99 34.992 218.998 36.976C218.006 38.96 217.51 41.152 217.51 43.552C217.51 46.112 218.31 48.16 219.91 49.696C221.51 51.2 223.766 51.952 226.678 51.952ZM293.909 24.4L287.237 58H279.989L283.973 37.984L271.109 54.448H267.605L260.693 37.744L256.661 58H249.413L256.133 24.4H262.469L270.869 45.328L287.237 24.4H293.909ZM313.152 58.576C309.792 58.576 306.848 57.968 304.32 56.752C301.824 55.536 299.904 53.824 298.56 51.616C297.216 49.408 296.544 46.864 296.544 43.984C296.544 40.176 297.408 36.752 299.136 33.712C300.896 30.64 303.36 28.224 306.528 26.464C309.696 24.704 313.328 23.824 317.424 23.824C320.432 23.824 323.088 24.336 325.392 25.36C327.696 26.384 329.44 27.856 330.624 29.776L325.008 34.384C323.216 31.76 320.512 30.448 316.896 30.448C314.432 30.448 312.256 31.024 310.368 32.176C308.48 33.328 307.008 34.896 305.952 36.88C304.928 38.864 304.416 41.072 304.416 43.504C304.416 46.096 305.232 48.16 306.864 49.696C308.528 51.2 310.848 51.952 313.824 51.952C317.376 51.952 320.352 50.656 322.752 48.064L327.36 52.768C324.032 56.64 319.296 58.576 313.152 58.576ZM353.962 40.864L361.834 58H353.482L347.434 44.416H341.722L338.986 58H331.21L337.93 24.4H345.706L342.97 37.984H348.106L359.674 24.4H368.41L353.962 40.864ZM402.144 24.4L395.424 58H387.888L388.608 54.448C387.296 55.792 385.808 56.816 384.144 57.52C382.48 58.224 380.672 58.576 378.72 58.576C375.264 58.576 372.528 57.6 370.512 55.648C368.528 53.696 367.536 50.96 367.536 47.44C367.536 46.096 367.68 44.688 367.968 43.216L371.712 24.4H379.536L375.696 43.408C375.504 44.4 375.408 45.328 375.408 46.192C375.408 48.112 375.92 49.552 376.944 50.512C377.968 51.472 379.456 51.952 381.408 51.952C383.712 51.952 385.664 51.264 387.264 49.888C388.864 48.512 389.952 46.4 390.528 43.552L394.368 24.4H402.144ZM423.454 30.112C420.894 30.112 418.91 30.544 417.502 31.408C416.126 32.272 415.438 33.424 415.438 34.864C415.438 35.856 415.822 36.624 416.59 37.168C417.358 37.68 418.51 37.936 420.046 37.936H429.022L427.774 44.08H417.694C415.71 44.08 414.126 44.464 412.942 45.232C411.758 45.968 411.166 47.008 411.166 48.352C411.166 50.976 413.694 52.288 418.75 52.288C420.894 52.288 422.942 52.032 424.894 51.52C426.878 50.976 428.558 50.256 429.934 49.36L431.95 55.168C430.222 56.224 428.078 57.056 425.518 57.664C422.99 58.272 420.366 58.576 417.646 58.576C413.166 58.576 409.63 57.776 407.038 56.176C404.478 54.544 403.198 52.288 403.198 49.408C403.198 47.264 403.838 45.408 405.118 43.84C406.43 42.24 408.19 41.088 410.398 40.384C409.502 39.776 408.814 39.024 408.334 38.128C407.854 37.2 407.614 36.16 407.614 35.008C407.614 32.768 408.286 30.8 409.63 29.104C410.974 27.408 412.878 26.112 415.342 25.216C417.838 24.288 420.718 23.824 423.982 23.824C426.35 23.824 428.542 24.048 430.558 24.496C432.574 24.912 434.286 25.52 435.694 26.32L433.15 32.176C430.398 30.8 427.166 30.112 423.454 30.112ZM208.603 83.864L216.475 101H208.123L202.075 87.416H196.363L193.627 101H185.851L192.571 67.4H200.347L197.611 80.984H202.747L214.315 67.4H223.051L208.603 83.864ZM257.066 67.4L252.266 91.208C251.274 96.232 249.274 99.976 246.266 102.44C243.258 104.936 239.322 106.184 234.458 106.184C228.57 106.184 223.946 104.664 220.586 101.624L224.474 95.816C227.322 98.344 230.762 99.608 234.794 99.608C237.514 99.608 239.658 98.92 241.226 97.544C242.826 96.136 243.93 93.912 244.538 90.872L244.874 89.24C243.626 90.456 242.186 91.384 240.554 92.024C238.954 92.664 237.21 92.984 235.322 92.984C231.834 92.984 229.082 92.008 227.066 90.056C225.05 88.104 224.042 85.352 224.042 81.8C224.042 80.456 224.186 79.048 224.474 77.576L226.49 67.4H234.314L232.202 77.768C232.01 78.76 231.914 79.672 231.914 80.504C231.914 82.456 232.426 83.928 233.45 84.92C234.506 85.88 236.026 86.36 238.01 86.36C240.314 86.36 242.266 85.672 243.866 84.296C245.498 82.92 246.586 80.808 247.13 77.96L249.242 67.4H257.066ZM295.522 67.4L288.802 101H281.122L286.45 73.736H271.282L265.906 101H258.226L264.946 67.4H295.522ZM314.459 101.576C311.099 101.576 308.187 100.968 305.723 99.752C303.259 98.536 301.371 96.824 300.059 94.616C298.747 92.408 298.091 89.864 298.091 86.984C298.091 83.176 298.955 79.752 300.683 76.712C302.443 73.64 304.891 71.224 308.027 69.464C311.195 67.704 314.811 66.824 318.875 66.824C322.235 66.824 325.147 67.432 327.611 68.648C330.075 69.864 331.963 71.576 333.275 73.784C334.587 75.992 335.243 78.536 335.243 81.416C335.243 85.224 334.363 88.664 332.603 91.736C330.875 94.776 328.427 97.176 325.259 98.936C322.123 100.696 318.523 101.576 314.459 101.576ZM315.131 94.952C317.595 94.952 319.755 94.36 321.611 93.176C323.467 91.992 324.891 90.408 325.883 88.424C326.875 86.44 327.371 84.248 327.371 81.848C327.371 79.288 326.571 77.256 324.971 75.752C323.371 74.216 321.115 73.448 318.203 73.448C315.739 73.448 313.579 74.04 311.723 75.224C309.867 76.408 308.443 77.992 307.451 79.976C306.459 81.96 305.963 84.152 305.963 86.552C305.963 89.112 306.763 91.16 308.363 92.696C309.963 94.2 312.219 94.952 315.131 94.952ZM375.354 67.4L368.634 101H360.858L363.594 87.32H348.378L345.642 101H337.818L344.538 67.4H352.362L349.722 80.6H364.938L367.578 67.4H375.354ZM397.261 77.624C400.941 77.624 403.757 78.488 405.709 80.216C407.661 81.944 408.637 84.424 408.637 87.656C408.637 90.472 407.917 92.936 406.477 95.048C405.037 97.16 402.989 98.792 400.333 99.944C397.709 101.096 394.653 101.672 391.165 101.672C387.101 101.672 383.981 100.792 381.805 99.032C379.629 97.24 378.541 94.744 378.541 91.544C378.541 90.488 378.653 89.416 378.877 88.328L383.053 67.4H390.733L388.285 79.592C391.261 78.28 394.253 77.624 397.261 77.624ZM424.717 67.4L417.997 101H410.317L417.037 67.4H424.717ZM392.269 95.624C394.797 95.624 396.829 94.984 398.365 93.704C399.901 92.392 400.669 90.664 400.669 88.52C400.669 86.888 400.157 85.656 399.133 84.824C398.141 83.96 396.685 83.528 394.765 83.528C392.269 83.528 389.709 84.232 387.085 85.64L386.461 88.856C386.333 89.464 386.269 90.072 386.269 90.68C386.269 92.28 386.781 93.512 387.805 94.376C388.829 95.208 390.317 95.624 392.269 95.624Z" fill="white"/>
</g>
<path d="M204.981 35.808C202.165 34.176 199.221 33.136 196.149 32.688L190.677 60H182.853L188.373 32.544C184.725 32.928 181.509 33.968 178.725 35.664L176.709 29.808C178.789 28.528 181.253 27.552 184.101 26.88C186.949 26.176 189.829 25.824 192.741 25.824C195.749 25.824 198.581 26.192 201.237 26.928C203.925 27.632 206.309 28.656 208.389 30L204.981 35.808ZM223.936 60.576C220.576 60.576 217.664 59.968 215.2 58.752C212.736 57.536 210.848 55.824 209.536 53.616C208.224 51.408 207.568 48.864 207.568 45.984C207.568 42.176 208.432 38.752 210.16 35.712C211.92 32.64 214.368 30.224 217.504 28.464C220.672 26.704 224.288 25.824 228.352 25.824C231.712 25.824 234.624 26.432 237.088 27.648C239.552 28.864 241.44 30.576 242.752 32.784C244.064 34.992 244.72 37.536 244.72 40.416C244.72 44.224 243.84 47.664 242.08 50.736C240.352 53.776 237.904 56.176 234.736 57.936C231.6 59.696 228 60.576 223.936 60.576ZM224.608 53.952C227.072 53.952 229.232 53.36 231.088 52.176C232.944 50.992 234.368 49.408 235.36 47.424C236.352 45.44 236.848 43.248 236.848 40.848C236.848 38.288 236.048 36.256 234.448 34.752C232.848 33.216 230.592 32.448 227.68 32.448C225.216 32.448 223.056 33.04 221.2 34.224C219.344 35.408 217.92 36.992 216.928 38.976C215.936 40.96 215.44 43.152 215.44 45.552C215.44 48.112 216.24 50.16 217.84 51.696C219.44 53.2 221.696 53.952 224.608 53.952ZM291.839 26.4L285.167 60H277.919L281.903 39.984L269.039 56.448H265.535L258.623 39.744L254.591 60H247.343L254.063 26.4H260.399L268.799 47.328L285.167 26.4H291.839ZM311.082 60.576C307.722 60.576 304.778 59.968 302.25 58.752C299.754 57.536 297.834 55.824 296.49 53.616C295.146 51.408 294.474 48.864 294.474 45.984C294.474 42.176 295.338 38.752 297.066 35.712C298.826 32.64 301.29 30.224 304.458 28.464C307.626 26.704 311.258 25.824 315.354 25.824C318.362 25.824 321.018 26.336 323.322 27.36C325.626 28.384 327.37 29.856 328.554 31.776L322.938 36.384C321.146 33.76 318.442 32.448 314.826 32.448C312.362 32.448 310.186 33.024 308.298 34.176C306.41 35.328 304.938 36.896 303.882 38.88C302.858 40.864 302.346 43.072 302.346 45.504C302.346 48.096 303.162 50.16 304.794 51.696C306.458 53.2 308.778 53.952 311.754 53.952C315.306 53.952 318.282 52.656 320.682 50.064L325.29 54.768C321.962 58.64 317.226 60.576 311.082 60.576ZM351.892 42.864L359.764 60H351.412L345.364 46.416H339.652L336.916 60H329.14L335.86 26.4H343.636L340.9 39.984H346.036L357.604 26.4H366.34L351.892 42.864ZM400.074 26.4L393.354 60H385.818L386.538 56.448C385.226 57.792 383.738 58.816 382.074 59.52C380.41 60.224 378.602 60.576 376.65 60.576C373.194 60.576 370.458 59.6 368.442 57.648C366.458 55.696 365.466 52.96 365.466 49.44C365.466 48.096 365.61 46.688 365.898 45.216L369.642 26.4H377.466L373.626 45.408C373.434 46.4 373.338 47.328 373.338 48.192C373.338 50.112 373.85 51.552 374.874 52.512C375.898 53.472 377.386 53.952 379.338 53.952C381.642 53.952 383.594 53.264 385.194 51.888C386.794 50.512 387.882 48.4 388.458 45.552L392.298 26.4H400.074ZM421.384 32.112C418.824 32.112 416.84 32.544 415.432 33.408C414.056 34.272 413.368 35.424 413.368 36.864C413.368 37.856 413.752 38.624 414.52 39.168C415.288 39.68 416.44 39.936 417.976 39.936H426.952L425.704 46.08H415.624C413.64 46.08 412.056 46.464 410.872 47.232C409.688 47.968 409.096 49.008 409.096 50.352C409.096 52.976 411.624 54.288 416.68 54.288C418.824 54.288 420.872 54.032 422.824 53.52C424.808 52.976 426.488 52.256 427.864 51.36L429.88 57.168C428.152 58.224 426.008 59.056 423.448 59.664C420.92 60.272 418.296 60.576 415.576 60.576C411.096 60.576 407.56 59.776 404.968 58.176C402.408 56.544 401.128 54.288 401.128 51.408C401.128 49.264 401.768 47.408 403.048 45.84C404.36 44.24 406.12 43.088 408.328 42.384C407.432 41.776 406.744 41.024 406.264 40.128C405.784 39.2 405.544 38.16 405.544 37.008C405.544 34.768 406.216 32.8 407.56 31.104C408.904 29.408 410.808 28.112 413.272 27.216C415.768 26.288 418.648 25.824 421.912 25.824C424.28 25.824 426.472 26.048 428.488 26.496C430.504 26.912 432.216 27.52 433.624 28.32L431.08 34.176C428.328 32.8 425.096 32.112 421.384 32.112ZM206.533 85.864L214.405 103H206.053L200.005 89.416H194.293L191.557 103H183.781L190.501 69.4H198.277L195.541 82.984H200.677L212.245 69.4H220.981L206.533 85.864ZM254.996 69.4L250.196 93.208C249.204 98.232 247.204 101.976 244.196 104.44C241.188 106.936 237.252 108.184 232.388 108.184C226.5 108.184 221.876 106.664 218.516 103.624L222.404 97.816C225.252 100.344 228.692 101.608 232.724 101.608C235.444 101.608 237.588 100.92 239.156 99.544C240.756 98.136 241.86 95.912 242.468 92.872L242.804 91.24C241.556 92.456 240.116 93.384 238.484 94.024C236.884 94.664 235.14 94.984 233.252 94.984C229.764 94.984 227.012 94.008 224.996 92.056C222.98 90.104 221.972 87.352 221.972 83.8C221.972 82.456 222.116 81.048 222.404 79.576L224.42 69.4H232.244L230.132 79.768C229.94 80.76 229.844 81.672 229.844 82.504C229.844 84.456 230.356 85.928 231.38 86.92C232.436 87.88 233.956 88.36 235.94 88.36C238.244 88.36 240.196 87.672 241.796 86.296C243.428 84.92 244.516 82.808 245.06 79.96L247.172 69.4H254.996ZM293.452 69.4L286.732 103H279.052L284.38 75.736H269.212L263.836 103H256.156L262.876 69.4H293.452ZM312.389 103.576C309.029 103.576 306.117 102.968 303.653 101.752C301.189 100.536 299.301 98.824 297.989 96.616C296.677 94.408 296.021 91.864 296.021 88.984C296.021 85.176 296.885 81.752 298.613 78.712C300.373 75.64 302.821 73.224 305.957 71.464C309.125 69.704 312.741 68.824 316.805 68.824C320.165 68.824 323.077 69.432 325.541 70.648C328.005 71.864 329.893 73.576 331.205 75.784C332.517 77.992 333.173 80.536 333.173 83.416C333.173 87.224 332.293 90.664 330.533 93.736C328.805 96.776 326.357 99.176 323.189 100.936C320.053 102.696 316.453 103.576 312.389 103.576ZM313.061 96.952C315.525 96.952 317.685 96.36 319.541 95.176C321.397 93.992 322.821 92.408 323.813 90.424C324.805 88.44 325.301 86.248 325.301 83.848C325.301 81.288 324.501 79.256 322.901 77.752C321.301 76.216 319.045 75.448 316.133 75.448C313.669 75.448 311.509 76.04 309.653 77.224C307.797 78.408 306.373 79.992 305.381 81.976C304.389 83.96 303.893 86.152 303.893 88.552C303.893 91.112 304.693 93.16 306.293 94.696C307.893 96.2 310.149 96.952 313.061 96.952ZM373.284 69.4L366.564 103H358.788L361.524 89.32H346.308L343.572 103H335.748L342.468 69.4H350.292L347.652 82.6H362.868L365.508 69.4H373.284ZM395.191 79.624C398.871 79.624 401.687 80.488 403.639 82.216C405.591 83.944 406.567 86.424 406.567 89.656C406.567 92.472 405.847 94.936 404.407 97.048C402.967 99.16 400.919 100.792 398.263 101.944C395.639 103.096 392.583 103.672 389.095 103.672C385.031 103.672 381.911 102.792 379.735 101.032C377.559 99.24 376.471 96.744 376.471 93.544C376.471 92.488 376.583 91.416 376.807 90.328L380.983 69.4H388.663L386.215 81.592C389.191 80.28 392.183 79.624 395.191 79.624ZM422.647 69.4L415.927 103H408.247L414.967 69.4H422.647ZM390.199 97.624C392.727 97.624 394.759 96.984 396.295 95.704C397.831 94.392 398.599 92.664 398.599 90.52C398.599 88.888 398.087 87.656 397.063 86.824C396.071 85.96 394.615 85.528 392.695 85.528C390.199 85.528 387.639 86.232 385.015 87.64L384.391 90.856C384.263 91.464 384.199 92.072 384.199 92.68C384.199 94.28 384.711 95.512 385.735 96.376C386.759 97.208 388.247 97.624 390.199 97.624Z" fill="#FFDD28"/>
<path d="M204.981 35.808L204.479 36.6732L205.34 37.1719L205.843 36.3141L204.981 35.808ZM196.149 32.688L196.293 31.6985L195.354 31.5616L195.168 32.4916L196.149 32.688ZM190.677 60V61H191.496L191.657 60.1964L190.677 60ZM182.853 60L181.872 59.8029L181.632 61H182.853V60ZM188.373 32.544L189.353 32.7411L189.621 31.407L188.268 31.5495L188.373 32.544ZM178.725 35.664L177.779 35.9895L178.184 37.1645L179.245 36.518L178.725 35.664ZM176.709 29.808L176.185 28.9563L175.502 29.3761L175.763 30.1335L176.709 29.808ZM184.101 26.88L184.33 27.8533L184.341 27.8508L184.101 26.88ZM201.237 26.928L200.97 27.8917L200.976 27.8936L200.983 27.8954L201.237 26.928ZM208.389 30L209.251 30.5061L209.736 29.6799L208.931 29.1601L208.389 30ZM205.482 34.9428C202.561 33.2502 199.497 32.1657 196.293 31.6985L196.004 33.6775C198.944 34.1063 201.768 35.1018 204.479 36.6732L205.482 34.9428ZM195.168 32.4916L189.696 59.8036L191.657 60.1964L197.129 32.8844L195.168 32.4916ZM190.677 59H182.853V61H190.677V59ZM183.833 60.1971L189.353 32.7411L187.392 32.3469L181.872 59.8029L183.833 60.1971ZM188.268 31.5495C184.491 31.947 181.13 33.0278 178.204 34.81L179.245 36.518C181.888 34.9082 184.958 33.909 188.477 33.5385L188.268 31.5495ZM179.67 35.3385L177.654 29.4825L175.763 30.1335L177.779 35.9895L179.67 35.3385ZM177.233 30.6597C179.206 29.4455 181.566 28.5054 184.33 27.8533L183.871 25.9067C180.939 26.5986 178.372 27.6105 176.185 28.9563L177.233 30.6597ZM184.341 27.8508C187.111 27.166 189.91 26.824 192.741 26.824V24.824C189.747 24.824 186.787 25.186 183.861 25.9092L184.341 27.8508ZM192.741 26.824C195.667 26.824 198.408 27.1819 200.97 27.8917L201.504 25.9643C198.753 25.2021 195.831 24.824 192.741 24.824V26.824ZM200.983 27.8954C203.581 28.5757 205.865 29.56 207.846 30.8399L208.931 29.1601C206.752 27.752 204.268 26.6883 201.49 25.9606L200.983 27.8954ZM207.526 29.4939L204.118 35.3019L205.843 36.3141L209.251 30.5061L207.526 29.4939ZM215.2 58.752L215.642 57.8553L215.642 57.8553L215.2 58.752ZM209.536 53.616L208.676 54.1268L208.676 54.1268L209.536 53.616ZM210.16 35.712L209.292 35.2149L209.29 35.2178L210.16 35.712ZM217.504 28.464L217.018 27.5898L217.014 27.5919L217.504 28.464ZM242.752 32.784L241.892 33.2948L241.892 33.2948L242.752 32.784ZM242.08 50.736L241.212 50.2389L241.21 50.2418L242.08 50.736ZM234.736 57.936L234.25 57.0618L234.246 57.0639L234.736 57.936ZM231.088 52.176L231.626 53.0191L231.626 53.0191L231.088 52.176ZM235.36 47.424L234.465 46.9768L234.465 46.9768L235.36 47.424ZM234.448 34.752L233.755 35.4734L233.763 35.4806L234.448 34.752ZM216.928 38.976L216.033 38.5288L216.033 38.5288L216.928 38.976ZM217.84 51.696L217.147 52.4174L217.155 52.4246L217.84 51.696ZM223.936 59.576C220.696 59.576 217.941 58.9899 215.642 57.8553L214.757 59.6487C217.386 60.9461 220.456 61.576 223.936 61.576V59.576ZM215.642 57.8553C213.339 56.7186 211.602 55.1352 210.395 53.1052L208.676 54.1268C210.094 56.5128 212.132 58.3534 214.757 59.6487L215.642 57.8553ZM210.395 53.1052C209.186 51.0699 208.568 48.7065 208.568 45.984H206.568C206.568 49.0215 207.261 51.7461 208.676 54.1268L210.395 53.1052ZM208.568 45.984C208.568 42.3334 209.394 39.0823 211.029 36.2062L209.29 35.2178C207.469 38.4217 206.568 42.0186 206.568 45.984H208.568ZM211.027 36.2091C212.696 33.2966 215.012 31.009 217.993 29.3361L217.014 27.5919C213.723 29.439 211.143 31.9834 209.292 35.2149L211.027 36.2091ZM217.989 29.3382C220.992 27.6703 224.437 26.824 228.352 26.824V24.824C224.139 24.824 220.352 25.7377 217.018 27.5898L217.989 29.3382ZM228.352 26.824C231.592 26.824 234.346 27.4101 236.645 28.5447L237.53 26.7513C234.901 25.4539 231.832 24.824 228.352 24.824V26.824ZM236.645 28.5447C238.948 29.6814 240.686 31.2648 241.892 33.2948L243.611 32.2732C242.194 29.8872 240.155 28.0466 237.53 26.7513L236.645 28.5447ZM241.892 33.2948C243.101 35.3301 243.72 37.6935 243.72 40.416H245.72C245.72 37.3785 245.026 34.6539 243.611 32.2732L241.892 33.2948ZM243.72 40.416C243.72 44.0632 242.879 47.3296 241.212 50.2389L242.947 51.2331C244.801 47.9984 245.72 44.3848 245.72 40.416H243.72ZM241.21 50.2418C239.576 53.1164 237.264 55.3875 234.25 57.0618L235.221 58.8102C238.544 56.9645 241.127 54.4356 242.949 51.2302L241.21 50.2418ZM234.246 57.0639C231.278 58.7296 227.851 59.576 223.936 59.576V61.576C228.149 61.576 231.921 60.6624 235.225 58.8081L234.246 57.0639ZM224.608 54.952C227.239 54.952 229.59 54.3175 231.626 53.0191L230.55 51.3329C228.873 52.4025 226.905 52.952 224.608 52.952V54.952ZM231.626 53.0191C233.635 51.737 235.182 50.0157 236.254 47.8712L234.465 46.9768C233.554 48.8003 232.252 50.247 230.55 51.3329L231.626 53.0191ZM236.254 47.8712C237.321 45.7372 237.848 43.3903 237.848 40.848H235.848C235.848 43.1057 235.382 45.1428 234.465 46.9768L236.254 47.8712ZM237.848 40.848C237.848 38.062 236.967 35.748 235.133 34.0234L233.763 35.4806C235.128 36.764 235.848 38.514 235.848 40.848H237.848ZM235.14 34.0306C233.302 32.2654 230.767 31.448 227.68 31.448V33.448C230.417 33.448 232.394 34.1666 233.755 35.4734L235.14 34.0306ZM227.68 31.448C225.049 31.448 222.697 32.0825 220.662 33.3809L221.738 35.0671C223.414 33.9975 225.383 33.448 227.68 33.448V31.448ZM220.662 33.3809C218.652 34.663 217.106 36.3843 216.033 38.5288L217.822 39.4232C218.734 37.5997 220.035 36.153 221.738 35.0671L220.662 33.3809ZM216.033 38.5288C214.966 40.6628 214.44 43.0097 214.44 45.552H216.44C216.44 43.2943 216.905 41.2572 217.822 39.4232L216.033 38.5288ZM214.44 45.552C214.44 48.3385 215.32 50.6633 217.147 52.4174L218.532 50.9746C217.16 49.6567 216.44 47.8855 216.44 45.552H214.44ZM217.155 52.4246C218.994 54.1536 221.526 54.952 224.608 54.952V52.952C221.865 52.952 219.885 52.2464 218.525 50.9674L217.155 52.4246ZM291.839 26.4L292.82 26.5948L293.057 25.4H291.839V26.4ZM285.167 60V61H285.988L286.148 60.1948L285.167 60ZM277.919 60L276.939 59.8048L276.701 61H277.919V60ZM281.903 39.984L282.884 40.1792L281.115 39.3683L281.903 39.984ZM269.039 56.448V57.448H269.527L269.827 57.0637L269.039 56.448ZM265.535 56.448L264.611 56.8304L264.867 57.448H265.535V56.448ZM258.623 39.744L259.547 39.3616L258.286 36.3143L257.643 39.5488L258.623 39.744ZM254.591 60V61H255.412L255.572 60.1952L254.591 60ZM247.343 60L246.363 59.8039L246.123 61H247.343V60ZM254.063 26.4V25.4H253.244L253.083 26.2039L254.063 26.4ZM260.399 26.4L261.327 26.0275L261.075 25.4H260.399V26.4ZM268.799 47.328L267.871 47.7005L268.518 49.3112L269.587 47.9441L268.799 47.328ZM285.167 26.4V25.4H284.68L284.38 25.7839L285.167 26.4ZM290.858 26.2052L284.186 59.8052L286.148 60.1948L292.82 26.5948L290.858 26.2052ZM285.167 59H277.919V61H285.167V59ZM278.9 60.1952L282.884 40.1792L280.923 39.7888L276.939 59.8048L278.9 60.1952ZM281.115 39.3683L268.251 55.8323L269.827 57.0637L282.691 40.5997L281.115 39.3683ZM269.039 55.448H265.535V57.448H269.039V55.448ZM266.459 56.0656L259.547 39.3616L257.699 40.1264L264.611 56.8304L266.459 56.0656ZM257.643 39.5488L253.611 59.8048L255.572 60.1952L259.604 39.9392L257.643 39.5488ZM254.591 59H247.343V61H254.591V59ZM248.324 60.1961L255.044 26.5961L253.083 26.2039L246.363 59.8039L248.324 60.1961ZM254.063 27.4H260.399V25.4H254.063V27.4ZM259.471 26.7725L267.871 47.7005L269.727 46.9555L261.327 26.0275L259.471 26.7725ZM269.587 47.9441L285.955 27.0161L284.38 25.7839L268.012 46.7119L269.587 47.9441ZM285.167 27.4H291.839V25.4H285.167V27.4ZM302.25 58.752L301.812 59.651L301.817 59.6532L302.25 58.752ZM296.49 53.616L295.636 54.1359L295.636 54.1359L296.49 53.616ZM297.066 35.712L296.198 35.2149L296.197 35.2178L297.066 35.712ZM304.458 28.464L304.944 29.3382L304.944 29.3382L304.458 28.464ZM323.322 27.36L323.728 26.4462L323.728 26.4462L323.322 27.36ZM328.554 31.776L329.188 32.5491L329.864 31.9948L329.405 31.2511L328.554 31.776ZM322.938 36.384L322.112 36.948L322.728 37.8498L323.572 37.1571L322.938 36.384ZM308.298 34.176L307.777 33.3224L307.777 33.3224L308.298 34.176ZM303.882 38.88L302.999 38.4101L302.993 38.4214L303.882 38.88ZM304.794 51.696L304.109 52.4242L304.116 52.4311L304.124 52.4379L304.794 51.696ZM320.682 50.064L321.396 49.3642L320.662 48.6142L319.948 49.3846L320.682 50.064ZM325.29 54.768L326.048 55.4198L326.647 54.7238L326.004 54.0682L325.29 54.768ZM311.082 59.576C307.843 59.576 305.052 58.9902 302.684 57.8508L301.817 59.6532C304.504 60.9458 307.601 61.576 311.082 61.576V59.576ZM302.688 57.853C300.351 56.7144 298.581 55.1282 297.344 53.0961L295.636 54.1359C297.087 56.5198 299.157 58.3576 301.812 59.651L302.688 57.853ZM297.344 53.0961C296.106 51.0621 295.474 48.7021 295.474 45.984H293.474C293.474 49.0259 294.186 51.7539 295.636 54.1359L297.344 53.0961ZM295.474 45.984C295.474 42.3334 296.301 39.0823 297.935 36.2062L296.197 35.2178C294.376 38.4217 293.474 42.0186 293.474 45.984H295.474ZM297.934 36.2091C299.601 33.2991 301.931 31.0118 304.944 29.3382L303.972 27.5898C300.649 29.4362 298.051 31.9809 296.198 35.2149L297.934 36.2091ZM304.944 29.3382C307.945 27.671 311.406 26.824 315.354 26.824V24.824C311.111 24.824 307.307 25.737 303.972 27.5898L304.944 29.3382ZM315.354 26.824C318.249 26.824 320.762 27.3165 322.916 28.2738L323.728 26.4462C321.274 25.3555 318.475 24.824 315.354 24.824V26.824ZM322.916 28.2738C325.058 29.226 326.637 30.5723 327.703 32.3009L329.405 31.2511C328.103 29.1397 326.194 27.542 323.728 26.4462L322.916 28.2738ZM327.92 31.0029L322.304 35.6109L323.572 37.1571L329.188 32.5491L327.92 31.0029ZM323.764 35.82C321.757 32.8822 318.719 31.448 314.826 31.448V33.448C318.165 33.448 320.535 34.6378 322.112 36.948L323.764 35.82ZM314.826 31.448C312.2 31.448 309.84 32.064 307.777 33.3224L308.819 35.0296C310.533 33.984 312.524 33.448 314.826 33.448V31.448ZM307.777 33.3224C305.734 34.5692 304.138 36.2708 302.999 38.4101L304.765 39.3498C305.738 37.5212 307.086 36.0868 308.819 35.0296L307.777 33.3224ZM302.993 38.4214C301.89 40.5595 301.346 42.927 301.346 45.504H303.346C303.346 43.217 303.826 41.1685 304.771 39.3386L302.993 38.4214ZM301.346 45.504C301.346 48.3245 302.244 50.6691 304.109 52.4242L305.479 50.9678C304.08 49.6509 303.346 47.8675 303.346 45.504H301.346ZM304.124 52.4379C306.025 54.1561 308.613 54.952 311.754 54.952V52.952C308.943 52.952 306.892 52.2439 305.465 50.9541L304.124 52.4379ZM311.754 54.952C315.583 54.952 318.825 53.5411 321.416 50.7434L319.948 49.3846C317.739 51.7709 315.029 52.952 311.754 52.952V54.952ZM319.968 50.7638L324.576 55.4678L326.004 54.0682L321.396 49.3642L319.968 50.7638ZM324.532 54.1162C321.432 57.7222 317 59.576 311.082 59.576V61.576C317.453 61.576 322.492 59.5578 326.048 55.4198L324.532 54.1162ZM351.892 42.864L351.141 42.2044L350.713 42.692L350.983 43.2814L351.892 42.864ZM359.764 60V61H361.324L360.673 59.5826L359.764 60ZM351.412 60L350.499 60.4067L350.763 61H351.412V60ZM345.364 46.416L346.278 46.0093L346.014 45.416H345.364V46.416ZM339.652 46.416V45.416H338.834L338.672 46.2186L339.652 46.416ZM336.916 60V61H337.735L337.896 60.1974L336.916 60ZM329.14 60L328.16 59.8039L327.92 61H329.14V60ZM335.86 26.4V25.4H335.04L334.88 26.2039L335.86 26.4ZM343.636 26.4L344.616 26.5974L344.858 25.4H343.636V26.4ZM340.9 39.984L339.92 39.7866L339.679 40.984H340.9V39.984ZM346.036 39.984V40.984H346.498L346.798 40.6323L346.036 39.984ZM357.604 26.4V25.4H357.142L356.843 25.7516L357.604 26.4ZM366.34 26.4L367.092 27.0596L368.548 25.4H366.34V26.4ZM350.983 43.2814L358.855 60.4174L360.673 59.5826L352.801 42.4466L350.983 43.2814ZM359.764 59H351.412V61H359.764V59ZM352.326 59.5933L346.278 46.0093L344.451 46.8227L350.499 60.4067L352.326 59.5933ZM345.364 45.416H339.652V47.416H345.364V45.416ZM338.672 46.2186L335.936 59.8026L337.896 60.1974L340.632 46.6134L338.672 46.2186ZM336.916 59H329.14V61H336.916V59ZM330.121 60.1961L336.841 26.5961L334.88 26.2039L328.16 59.8039L330.121 60.1961ZM335.86 27.4H343.636V25.4H335.86V27.4ZM342.656 26.2025L339.92 39.7866L341.88 40.1814L344.616 26.5974L342.656 26.2025ZM340.9 40.984H346.036V38.984H340.9V40.984ZM346.798 40.6323L358.366 27.0483L356.843 25.7516L345.275 39.3356L346.798 40.6323ZM357.604 27.4H366.34V25.4H357.604V27.4ZM365.589 25.7404L351.141 42.2044L352.644 43.5236L367.092 27.0596L365.589 25.7404ZM400.074 26.4L401.055 26.5961L401.294 25.4H400.074V26.4ZM393.354 60V61H394.174L394.335 60.1961L393.354 60ZM385.818 60L384.838 59.8013L384.595 61H385.818V60ZM386.538 56.448L387.518 56.6467L388.192 53.3221L385.823 55.7495L386.538 56.448ZM382.074 59.52L381.685 58.599L381.685 58.599L382.074 59.52ZM368.442 57.648L367.741 58.3609L367.747 58.3664L368.442 57.648ZM365.898 45.216L364.918 45.0208L364.917 45.024L365.898 45.216ZM369.642 26.4V25.4H368.822L368.662 26.2048L369.642 26.4ZM377.466 26.4L378.447 26.598L378.689 25.4H377.466V26.4ZM373.626 45.408L372.646 45.21L372.645 45.218L373.626 45.408ZM385.194 51.888L384.542 51.1298L384.542 51.1298L385.194 51.888ZM388.458 45.552L389.439 45.7502L389.439 45.7486L388.458 45.552ZM392.298 26.4V25.4H391.479L391.318 26.2034L392.298 26.4ZM399.094 26.2039L392.374 59.8039L394.335 60.1961L401.055 26.5961L399.094 26.2039ZM393.354 59H385.818V61H393.354V59ZM386.798 60.1987L387.518 56.6467L385.558 56.2493L384.838 59.8013L386.798 60.1987ZM385.823 55.7495C384.6 57.0022 383.222 57.9488 381.685 58.599L382.464 60.441C384.255 59.6832 385.853 58.5818 387.254 57.1465L385.823 55.7495ZM381.685 58.599C380.154 59.2468 378.479 59.576 376.65 59.576V61.576C378.725 61.576 380.667 61.2012 382.464 60.441L381.685 58.599ZM376.65 59.576C373.391 59.576 370.926 58.6612 369.138 56.9296L367.747 58.3664C369.99 60.5388 372.998 61.576 376.65 61.576V59.576ZM369.144 56.9352C367.398 55.2178 366.466 52.7668 366.466 49.44H364.466C364.466 53.1532 365.519 56.1742 367.741 58.3608L369.144 56.9352ZM366.466 49.44C366.466 48.1674 366.603 46.8239 366.88 45.408L364.917 45.024C364.618 46.5521 364.466 48.0246 364.466 49.44H366.466ZM366.879 45.4112L370.623 26.5952L368.662 26.2048L364.918 45.0208L366.879 45.4112ZM369.642 27.4H377.466V25.4H369.642V27.4ZM376.486 26.202L372.646 45.21L374.607 45.606L378.447 26.598L376.486 26.202ZM372.645 45.218C372.443 46.2624 372.338 47.2546 372.338 48.192H374.338C374.338 47.4014 374.426 46.5376 374.608 45.598L372.645 45.218ZM372.338 48.192C372.338 50.2833 372.899 52.0309 374.19 53.2415L375.558 51.7825C374.802 51.0731 374.338 49.9407 374.338 48.192H372.338ZM374.19 53.2415C375.462 54.4334 377.232 54.952 379.338 54.952V52.952C377.54 52.952 376.335 52.5106 375.558 51.7825L374.19 53.2415ZM379.338 54.952C381.858 54.952 384.048 54.193 385.846 52.6462L384.542 51.1298C383.141 52.335 381.427 52.952 379.338 52.952V54.952ZM385.846 52.6462C387.669 51.0792 388.835 48.7352 389.439 45.7502L387.478 45.3538C386.93 48.0648 385.92 49.9448 384.542 51.1298L385.846 52.6462ZM389.439 45.7486L393.279 26.5966L391.318 26.2034L387.478 45.3554L389.439 45.7486ZM392.298 27.4H400.074V25.4H392.298V27.4ZM415.432 33.408L414.909 32.5556L414.9 32.5611L415.432 33.408ZM414.52 39.168L413.942 39.984L413.953 39.9922L413.965 40L414.52 39.168ZM426.952 39.936L427.932 40.1351L428.175 38.936H426.952V39.936ZM425.704 46.08V47.08H426.521L426.684 46.2791L425.704 46.08ZM410.872 47.232L411.4 48.0813L411.408 48.0762L411.416 48.071L410.872 47.232ZM422.824 53.52L423.078 54.4873L423.088 54.4844L422.824 53.52ZM427.864 51.36L428.809 51.0321L428.389 49.8245L427.318 50.522L427.864 51.36ZM429.88 57.168L430.401 58.0213L431.089 57.6012L430.825 56.8401L429.88 57.168ZM423.448 59.664L423.217 58.6911L423.214 58.6917L423.448 59.664ZM404.968 58.176L404.43 59.0192L404.436 59.0231L404.443 59.0269L404.968 58.176ZM403.048 45.84L402.275 45.2059L402.273 45.2076L403.048 45.84ZM408.328 42.384L408.632 43.3367L410.592 42.7118L408.889 41.5565L408.328 42.384ZM406.264 40.128L405.376 40.5874L405.379 40.5938L405.382 40.6002L406.264 40.128ZM407.56 31.104L406.776 30.4829L406.776 30.4829L407.56 31.104ZM413.272 27.216L413.614 28.1558L413.62 28.1533L413.272 27.216ZM428.488 26.496L428.271 27.4722L428.278 27.4738L428.286 27.4754L428.488 26.496ZM433.624 28.32L434.541 28.7185L434.899 27.8944L434.118 27.4505L433.624 28.32ZM431.08 34.176L430.633 35.0704L431.576 35.5424L431.997 34.5744L431.08 34.176ZM421.384 31.112C418.732 31.112 416.538 31.5558 414.909 32.5557L415.955 34.2603C417.141 33.5322 418.915 33.112 421.384 33.112V31.112ZM414.9 32.5611C413.277 33.5803 412.368 35.0307 412.368 36.864H414.368C414.368 35.8173 414.835 34.9637 415.964 34.2549L414.9 32.5611ZM412.368 36.864C412.368 38.1597 412.893 39.2409 413.942 39.984L415.098 38.352C414.611 38.0071 414.368 37.5523 414.368 36.864H412.368ZM413.965 40C414.974 40.6725 416.36 40.936 417.976 40.936V38.936C416.519 38.936 415.602 38.6875 415.075 38.3359L413.965 40ZM417.976 40.936H426.952V38.936H417.976V40.936ZM425.972 39.7369L424.724 45.8809L426.684 46.2791L427.932 40.1351L425.972 39.7369ZM425.704 45.08H415.624V47.08H425.704V45.08ZM415.624 45.08C413.522 45.08 411.727 45.4854 410.328 46.393L411.416 48.071C412.385 47.4426 413.758 47.08 415.624 47.08V45.08ZM410.344 46.3827C408.88 47.2929 408.096 48.647 408.096 50.352H410.096C410.096 49.369 410.496 48.6431 411.4 48.0813L410.344 46.3827ZM408.096 50.352C408.096 51.1755 408.297 51.9421 408.728 52.6144C409.157 53.2823 409.778 53.8006 410.531 54.1916C412.009 54.9584 414.098 55.288 416.68 55.288V53.288C414.206 53.288 412.503 52.9616 411.452 52.4164C410.942 52.1514 410.614 51.8497 410.411 51.5336C410.211 51.2219 410.096 50.8405 410.096 50.352H408.096ZM416.68 55.288C418.904 55.288 421.038 55.0223 423.078 54.4873L422.57 52.5527C420.706 53.0417 418.744 53.288 416.68 53.288V55.288ZM423.088 54.4844C425.148 53.9197 426.928 53.1626 428.409 52.198L427.318 50.522C426.047 51.3494 424.468 52.0323 422.559 52.5556L423.088 54.4844ZM426.919 51.6879L428.935 57.4959L430.825 56.8401L428.809 51.0321L426.919 51.6879ZM429.358 56.3147C427.743 57.3022 425.703 58.1005 423.217 58.6911L423.679 60.6369C426.312 60.0115 428.561 59.1458 430.401 58.0213L429.358 56.3147ZM423.214 58.6917C420.766 59.2805 418.221 59.576 415.576 59.576V61.576C418.371 61.576 421.074 61.2635 423.682 60.6363L423.214 58.6917ZM415.576 59.576C411.199 59.576 407.87 58.792 405.493 57.3251L404.443 59.0269C407.25 60.76 410.992 61.576 415.576 61.576V59.576ZM405.505 57.3328C403.215 55.8724 402.128 53.9247 402.128 51.408H400.128C400.128 54.6513 401.601 57.2156 404.43 59.0192L405.505 57.3328ZM402.128 51.408C402.128 49.4797 402.697 47.8508 403.822 46.4724L402.273 45.2076C400.838 46.9652 400.128 49.0483 400.128 51.408H402.128ZM403.821 46.4741C404.996 45.0409 406.585 43.9894 408.632 43.3367L408.024 41.4313C405.655 42.1866 403.723 43.4391 402.275 45.2059L403.821 46.4741ZM408.889 41.5565C408.118 41.0332 407.544 40.4 407.145 39.6558L405.382 40.6002C405.944 41.648 406.745 42.5188 407.766 43.2115L408.889 41.5565ZM407.152 39.6686C406.753 38.8967 406.544 38.0168 406.544 37.008H404.544C404.544 38.3032 404.815 39.5033 405.376 40.5874L407.152 39.6686ZM406.544 37.008C406.544 34.9849 407.145 33.2378 408.344 31.7251L406.776 30.4829C405.287 32.3622 404.544 34.5511 404.544 37.008H406.544ZM408.344 31.7251C409.55 30.2022 411.287 29.002 413.614 28.1558L412.93 26.2762C410.329 27.222 408.257 28.6138 406.776 30.4829L408.344 31.7251ZM413.62 28.1533C415.983 27.2749 418.741 26.824 421.912 26.824V24.824C418.555 24.824 415.553 25.3011 412.923 26.2787L413.62 28.1533ZM421.912 26.824C424.217 26.824 426.336 27.0421 428.271 27.4722L428.705 25.5198C426.608 25.0539 424.342 24.824 421.912 24.824V26.824ZM428.286 27.4754C430.226 27.8757 431.834 28.453 433.13 29.1895L434.118 27.4505C432.598 26.587 430.782 25.9483 428.69 25.5166L428.286 27.4754ZM432.707 27.9215L430.163 33.7775L431.997 34.5744L434.541 28.7185L432.707 27.9215ZM431.527 33.2816C428.61 31.8232 425.219 31.112 421.384 31.112V33.112C424.972 33.112 428.045 33.7767 430.633 35.0704L431.527 33.2816ZM206.533 85.864L205.781 85.2044L205.353 85.692L205.624 86.2814L206.533 85.864ZM214.405 103V104H215.965L215.314 102.583L214.405 103ZM206.053 103L205.139 103.407L205.403 104H206.053V103ZM200.005 89.416L200.918 89.0093L200.654 88.416H200.005V89.416ZM194.293 89.416V88.416H193.474L193.312 89.2186L194.293 89.416ZM191.557 103V104H192.375L192.537 103.197L191.557 103ZM183.781 103L182.8 102.804L182.561 104H183.781V103ZM190.501 69.4V68.4H189.681L189.52 69.2039L190.501 69.4ZM198.277 69.4L199.257 69.5974L199.498 68.4H198.277V69.4ZM195.541 82.984L194.56 82.7866L194.319 83.984H195.541V82.984ZM200.677 82.984V83.984H201.139L201.438 83.6323L200.677 82.984ZM212.245 69.4V68.4H211.783L211.483 68.7516L212.245 69.4ZM220.981 69.4L221.732 70.0596L223.189 68.4H220.981V69.4ZM205.624 86.2814L213.496 103.417L215.314 102.583L207.442 85.4466L205.624 86.2814ZM214.405 102H206.053V104H214.405V102ZM206.966 102.593L200.918 89.0093L199.091 89.8227L205.139 103.407L206.966 102.593ZM200.005 88.416H194.293V90.416H200.005V88.416ZM193.312 89.2186L190.576 102.803L192.537 103.197L195.273 89.6134L193.312 89.2186ZM191.557 102H183.781V104H191.557V102ZM184.761 103.196L191.481 69.5961L189.52 69.2039L182.8 102.804L184.761 103.196ZM190.501 70.4H198.277V68.4H190.501V70.4ZM197.296 69.2025L194.56 82.7866L196.521 83.1814L199.257 69.5974L197.296 69.2025ZM195.541 83.984H200.677V81.984H195.541V83.984ZM201.438 83.6323L213.006 70.0483L211.483 68.7516L199.915 82.3356L201.438 83.6323ZM212.245 70.4H220.981V68.4H212.245V70.4ZM220.229 68.7404L205.781 85.2044L207.284 86.5236L221.732 70.0596L220.229 68.7404ZM254.996 69.4L255.977 69.5976L256.218 68.4H254.996V69.4ZM250.196 93.208L249.216 93.0104L249.215 93.0143L250.196 93.208ZM244.196 104.44L243.563 103.666L243.558 103.67L244.196 104.44ZM218.516 103.624L217.685 103.068L217.205 103.786L217.845 104.366L218.516 103.624ZM222.404 97.816L223.068 97.0681L222.211 96.3072L221.573 97.2597L222.404 97.816ZM239.156 99.544L239.816 100.296L239.817 100.295L239.156 99.544ZM242.468 92.872L241.489 92.6703L241.488 92.6759L242.468 92.872ZM242.804 91.24L243.784 91.4417L244.441 88.249L242.106 90.5238L242.804 91.24ZM238.484 94.024L238.119 93.093L238.113 93.0955L238.484 94.024ZM224.996 92.056L225.692 91.3376L224.996 92.056ZM222.404 79.576L221.423 79.3817L221.423 79.384L222.404 79.576ZM224.42 69.4V68.4H223.599L223.439 69.2057L224.42 69.4ZM232.244 69.4L233.224 69.5996L233.469 68.4H232.244V69.4ZM230.132 79.768L229.152 79.5684L229.151 79.578L230.132 79.768ZM231.38 86.92L230.685 87.6382L230.696 87.6493L230.708 87.6599L231.38 86.92ZM241.796 86.296L241.152 85.5314L241.144 85.5378L241.796 86.296ZM245.06 79.96L244.08 79.7639L244.078 79.7724L245.06 79.96ZM247.172 69.4V68.4H246.353L246.192 69.2039L247.172 69.4ZM254.016 69.2024L249.216 93.0104L251.177 93.4056L255.977 69.5976L254.016 69.2024ZM249.215 93.0143C248.254 97.8834 246.341 101.391 243.563 103.666L244.83 105.214C248.068 102.561 250.155 98.5806 251.177 93.4017L249.215 93.0143ZM243.558 103.67C240.77 105.984 237.078 107.184 232.388 107.184V109.184C237.427 109.184 241.607 107.888 244.835 105.21L243.558 103.67ZM232.388 107.184C226.672 107.184 222.314 105.711 219.187 102.882L217.845 104.366C221.439 107.617 226.329 109.184 232.388 109.184V107.184ZM219.347 104.18L223.235 98.3723L221.573 97.2597L217.685 103.068L219.347 104.18ZM221.74 98.5639C224.783 101.264 228.463 102.608 232.724 102.608V100.608C228.921 100.608 225.722 99.4236 223.068 97.0681L221.74 98.5639ZM232.724 102.608C235.612 102.608 238.016 101.875 239.816 100.296L238.497 98.7924C237.161 99.9647 235.277 100.608 232.724 100.608V102.608ZM239.817 100.295C241.641 98.6892 242.817 96.2289 243.449 93.0681L241.488 92.6759C240.904 95.5951 239.871 97.5828 238.496 98.7933L239.817 100.295ZM243.448 93.0737L243.784 91.4417L241.825 91.0383L241.489 92.6703L243.448 93.0737ZM242.106 90.5238C240.955 91.6461 239.628 92.5014 238.119 93.093L238.849 94.955C240.605 94.2666 242.158 93.2659 243.502 91.9562L242.106 90.5238ZM238.113 93.0955C236.642 93.6839 235.025 93.984 233.252 93.984V95.984C235.255 95.984 237.127 95.6441 238.856 94.9525L238.113 93.0955ZM233.252 93.984C229.958 93.984 227.479 93.0675 225.692 91.3376L224.301 92.7744C226.546 94.9485 229.571 95.984 233.252 95.984V93.984ZM225.692 91.3376C223.919 89.621 222.972 87.1573 222.972 83.8H220.972C220.972 87.5467 222.042 90.587 224.301 92.7744L225.692 91.3376ZM222.972 83.8C222.972 82.5274 223.109 81.1839 223.386 79.768L221.423 79.384C221.124 80.9121 220.972 82.3846 220.972 83.8H222.972ZM223.385 79.7703L225.401 69.5943L223.439 69.2057L221.423 79.3817L223.385 79.7703ZM224.42 70.4H232.244V68.4H224.42V70.4ZM231.264 69.2004L229.152 79.5684L231.112 79.9676L233.224 69.5996L231.264 69.2004ZM229.151 79.578C228.949 80.6198 228.844 81.5964 228.844 82.504H230.844C230.844 81.7476 230.932 80.9002 231.114 79.958L229.151 79.578ZM228.844 82.504C228.844 84.6239 229.403 86.3967 230.685 87.6382L232.076 86.2018C231.31 85.4593 230.844 84.288 230.844 82.504H228.844ZM230.708 87.6599C232.009 88.8429 233.805 89.36 235.94 89.36V87.36C234.108 87.36 232.864 86.9171 232.053 86.1801L230.708 87.6599ZM235.94 89.36C238.46 89.36 240.65 88.601 242.448 87.0542L241.144 85.5378C239.743 86.743 238.029 87.36 235.94 87.36V89.36ZM242.441 87.0605C244.302 85.4913 245.471 83.1405 246.043 80.1476L244.078 79.7724C243.562 82.4755 242.555 84.3487 241.152 85.5315L242.441 87.0605ZM246.041 80.1561L248.153 69.5961L246.192 69.2039L244.08 79.7639L246.041 80.1561ZM247.172 70.4H254.996V68.4H247.172V70.4ZM293.452 69.4L294.432 69.5961L294.672 68.4H293.452V69.4ZM286.732 103V104H287.552L287.712 103.196L286.732 103ZM279.052 103L278.07 102.808L277.837 104H279.052V103ZM284.38 75.736L285.361 75.9278L285.594 74.736H284.38V75.736ZM269.212 75.736V74.736H268.39L268.231 75.5425L269.212 75.736ZM263.836 103V104H264.658L264.817 103.193L263.836 103ZM256.156 103L255.175 102.804L254.936 104H256.156V103ZM262.876 69.4V68.4H262.056L261.895 69.2039L262.876 69.4ZM292.471 69.2039L285.751 102.804L287.712 103.196L294.432 69.5961L292.471 69.2039ZM286.732 102H279.052V104H286.732V102ZM280.033 103.192L285.361 75.9278L283.398 75.5442L278.07 102.808L280.033 103.192ZM284.38 74.736H269.212V76.736H284.38V74.736ZM268.231 75.5425L262.855 102.807L264.817 103.193L270.193 75.9295L268.231 75.5425ZM263.836 102H256.156V104H263.836V102ZM257.136 103.196L263.856 69.5961L261.895 69.2039L255.175 102.804L257.136 103.196ZM262.876 70.4H293.452V68.4H262.876V70.4ZM303.653 101.752L304.095 100.855L304.095 100.855L303.653 101.752ZM297.989 96.616L297.129 97.1268L297.129 97.1268L297.989 96.616ZM298.613 78.712L297.745 78.2149L297.744 78.2178L298.613 78.712ZM305.957 71.464L305.471 70.5898L305.468 70.5919L305.957 71.464ZM331.205 75.784L330.345 76.2948L330.345 76.2948L331.205 75.784ZM330.533 93.736L329.665 93.2389L329.664 93.2418L330.533 93.736ZM323.189 100.936L322.703 100.062L322.7 100.064L323.189 100.936ZM319.541 95.176L320.079 96.0191L320.079 96.0191L319.541 95.176ZM323.813 90.424L322.919 89.9768L322.919 89.9768L323.813 90.424ZM322.901 77.752L322.208 78.4734L322.216 78.4806L322.901 77.752ZM305.381 81.976L304.487 81.5288L304.487 81.5288L305.381 81.976ZM306.293 94.696L305.6 95.4174L305.608 95.4246L306.293 94.696ZM312.389 102.576C309.149 102.576 306.395 101.99 304.095 100.855L303.21 102.649C305.839 103.946 308.909 104.576 312.389 104.576V102.576ZM304.095 100.855C301.792 99.7186 300.055 98.1352 298.849 96.1052L297.129 97.1268C298.547 99.5128 300.586 101.353 303.21 102.649L304.095 100.855ZM298.849 96.1052C297.639 94.0699 297.021 91.7065 297.021 88.984H295.021C295.021 92.0215 295.715 94.7461 297.129 97.1268L298.849 96.1052ZM297.021 88.984C297.021 85.3334 297.847 82.0823 299.482 79.2062L297.744 78.2178C295.922 81.4217 295.021 85.0186 295.021 88.984H297.021ZM299.481 79.2091C301.149 76.2966 303.465 74.009 306.446 72.3361L305.468 70.5919C302.176 72.439 299.597 74.9834 297.745 78.2149L299.481 79.2091ZM306.443 72.3382C309.445 70.6703 312.89 69.824 316.805 69.824V67.824C312.592 67.824 308.805 68.7377 305.471 70.5898L306.443 72.3382ZM316.805 69.824C320.045 69.824 322.799 70.4101 325.098 71.5447L325.983 69.7513C323.355 68.4539 320.285 67.824 316.805 67.824V69.824ZM325.098 71.5447C327.402 72.6814 329.139 74.2648 330.345 76.2948L332.065 75.2732C330.647 72.8872 328.608 71.0466 325.983 69.7513L325.098 71.5447ZM330.345 76.2948C331.555 78.3301 332.173 80.6935 332.173 83.416H334.173C334.173 80.3785 333.479 77.6539 332.065 75.2732L330.345 76.2948ZM332.173 83.416C332.173 87.0632 331.332 90.3296 329.665 93.2389L331.401 94.2331C333.254 90.9984 334.173 87.3848 334.173 83.416H332.173ZM329.664 93.2418C328.03 96.1164 325.717 98.3875 322.703 100.062L323.675 101.81C326.997 99.9645 329.58 97.4356 331.402 94.2302L329.664 93.2418ZM322.7 100.064C319.732 101.73 316.304 102.576 312.389 102.576V104.576C316.602 104.576 320.374 103.662 323.678 101.808L322.7 100.064ZM313.061 97.952C315.692 97.952 318.043 97.3175 320.079 96.0191L319.003 94.3329C317.326 95.4025 315.358 95.952 313.061 95.952V97.952ZM320.079 96.0191C322.088 94.737 323.635 93.0157 324.707 90.8712L322.919 89.9768C322.007 91.8003 320.705 93.247 319.003 94.3329L320.079 96.0191ZM324.707 90.8712C325.774 88.7372 326.301 86.3903 326.301 83.848H324.301C324.301 86.1057 323.835 88.1428 322.919 89.9768L324.707 90.8712ZM326.301 83.848C326.301 81.062 325.421 78.748 323.586 77.0234L322.216 78.4806C323.581 79.764 324.301 81.514 324.301 83.848H326.301ZM323.593 77.0306C321.755 75.2654 319.22 74.448 316.133 74.448V76.448C318.87 76.448 320.847 77.1666 322.208 78.4734L323.593 77.0306ZM316.133 74.448C313.502 74.448 311.15 75.0825 309.115 76.3809L310.191 78.0671C311.867 76.9975 313.836 76.448 316.133 76.448V74.448ZM309.115 76.3809C307.105 77.663 305.559 79.3843 304.487 81.5288L306.275 82.4232C307.187 80.5997 308.488 79.153 310.191 78.0671L309.115 76.3809ZM304.487 81.5288C303.419 83.6628 302.893 86.0097 302.893 88.552H304.893C304.893 86.2943 305.358 84.2572 306.275 82.4232L304.487 81.5288ZM302.893 88.552C302.893 91.3385 303.773 93.6633 305.6 95.4174L306.985 93.9746C305.613 92.6567 304.893 90.8855 304.893 88.552H302.893ZM305.608 95.4246C307.447 97.1536 309.98 97.952 313.061 97.952V95.952C310.318 95.952 308.338 95.2464 306.978 93.9674L305.608 95.4246ZM373.284 69.4L374.265 69.5961L374.504 68.4H373.284V69.4ZM366.564 103V104H367.384L367.545 103.196L366.564 103ZM358.788 103L357.808 102.804L357.569 104H358.788V103ZM361.524 89.32L362.505 89.5161L362.744 88.32H361.524V89.32ZM346.308 89.32V88.32H345.489L345.328 89.1239L346.308 89.32ZM343.572 103V104H344.392L344.553 103.196L343.572 103ZM335.748 103L334.768 102.804L334.529 104H335.748V103ZM342.468 69.4V68.4H341.649L341.488 69.2039L342.468 69.4ZM350.292 69.4L351.273 69.5961L351.512 68.4H350.292V69.4ZM347.652 82.6L346.672 82.4039L346.433 83.6H347.652V82.6ZM362.868 82.6V83.6H363.688L363.849 82.7961L362.868 82.6ZM365.508 69.4V68.4H364.689L364.528 69.2039L365.508 69.4ZM372.304 69.2039L365.584 102.804L367.545 103.196L374.265 69.5961L372.304 69.2039ZM366.564 102H358.788V104H366.564V102ZM359.769 103.196L362.505 89.5161L360.544 89.1239L357.808 102.804L359.769 103.196ZM361.524 88.32H346.308V90.32H361.524V88.32ZM345.328 89.1239L342.592 102.804L344.553 103.196L347.289 89.5161L345.328 89.1239ZM343.572 102H335.748V104H343.572V102ZM336.729 103.196L343.449 69.5961L341.488 69.2039L334.768 102.804L336.729 103.196ZM342.468 70.4H350.292V68.4H342.468V70.4ZM349.312 69.2039L346.672 82.4039L348.633 82.7961L351.273 69.5961L349.312 69.2039ZM347.652 83.6H362.868V81.6H347.652V83.6ZM363.849 82.7961L366.489 69.5961L364.528 69.2039L361.888 82.4039L363.849 82.7961ZM365.508 70.4H373.284V68.4H365.508V70.4ZM403.639 82.216L404.302 81.4672L404.302 81.4672L403.639 82.216ZM404.407 97.048L405.233 97.6113L405.233 97.6113L404.407 97.048ZM398.263 101.944L397.865 101.027L397.861 101.028L398.263 101.944ZM379.735 101.032L379.099 101.804L379.106 101.81L379.735 101.032ZM376.807 90.328L377.786 90.5297L377.787 90.5237L376.807 90.328ZM380.983 69.4V68.4H380.163L380.002 69.2043L380.983 69.4ZM388.663 69.4L389.643 69.5969L389.884 68.4H388.663V69.4ZM386.215 81.592L385.234 81.3951L384.855 83.2843L386.618 82.507L386.215 81.592ZM422.647 69.4L423.627 69.5961L423.867 68.4H422.647V69.4ZM415.927 103V104H416.747L416.907 103.196L415.927 103ZM408.247 103L407.266 102.804L407.027 104H408.247V103ZM414.967 69.4V68.4H414.147L413.986 69.2039L414.967 69.4ZM396.295 95.704L396.935 96.4723L396.944 96.4644L396.295 95.704ZM397.063 86.824L396.406 87.5781L396.419 87.5893L396.432 87.6001L397.063 86.824ZM385.015 87.64L384.542 86.7588L384.124 86.9834L384.033 87.4495L385.015 87.64ZM384.391 90.856L385.369 91.062L385.371 91.0543L385.372 91.0465L384.391 90.856ZM385.735 96.376L385.09 97.1403L385.097 97.1463L385.104 97.1521L385.735 96.376ZM395.191 80.624C398.726 80.624 401.27 81.4544 402.976 82.9648L404.302 81.4672C402.104 79.5216 399.015 78.624 395.191 78.624V80.624ZM402.976 82.9648C404.664 84.4588 405.567 86.6362 405.567 89.656H407.567C407.567 86.2118 406.518 83.4292 404.302 81.4672L402.976 82.9648ZM405.567 89.656C405.567 92.2923 404.896 94.5555 403.581 96.4847L405.233 97.6113C406.798 95.3165 407.567 92.6517 407.567 89.656H405.567ZM403.581 96.4847C402.261 98.4206 400.371 99.9395 397.865 101.027L398.661 102.861C401.466 101.644 403.673 99.8994 405.233 97.6113L403.581 96.4847ZM397.861 101.028C395.388 102.114 392.474 102.672 389.095 102.672V104.672C392.692 104.672 395.89 104.078 398.665 102.86L397.861 101.028ZM389.095 102.672C385.159 102.672 382.297 101.818 380.364 100.254L379.106 101.81C381.525 103.766 384.902 104.672 389.095 104.672V102.672ZM380.371 100.26C378.458 98.6851 377.471 96.4906 377.471 93.544H375.471C375.471 96.9974 376.66 99.7949 379.099 101.804L380.371 100.26ZM377.471 93.544C377.471 92.5592 377.575 91.5547 377.786 90.5297L375.827 90.1263C375.59 91.2773 375.471 92.4168 375.471 93.544H377.471ZM377.787 90.5237L381.963 69.5957L380.002 69.2043L375.826 90.1323L377.787 90.5237ZM380.983 70.4H388.663V68.4H380.983V70.4ZM387.682 69.2031L385.234 81.3951L387.195 81.7889L389.643 69.5969L387.682 69.2031ZM386.618 82.507C389.478 81.2465 392.333 80.624 395.191 80.624V78.624C392.033 78.624 388.904 79.3135 385.811 80.677L386.618 82.507ZM421.666 69.2039L414.946 102.804L416.907 103.196L423.627 69.5961L421.666 69.2039ZM415.927 102H408.247V104H415.927V102ZM409.227 103.196L415.947 69.5961L413.986 69.2039L407.266 102.804L409.227 103.196ZM414.967 70.4H422.647V68.4H414.967V70.4ZM390.199 98.624C392.897 98.624 395.176 97.9381 396.935 96.4722L395.655 94.9358C394.342 96.0299 392.556 96.624 390.199 96.624V98.624ZM396.944 96.4644C398.718 94.9495 399.599 92.9361 399.599 90.52H397.599C397.599 92.3919 396.944 93.8345 395.645 94.9436L396.944 96.4644ZM399.599 90.52C399.599 88.6652 399.006 87.1142 397.693 86.0479L396.432 87.6001C397.168 88.1978 397.599 89.1108 397.599 90.52H399.599ZM397.72 86.0699C396.478 84.9882 394.748 84.528 392.695 84.528V86.528C394.482 86.528 395.664 86.9318 396.406 87.5781L397.72 86.0699ZM392.695 84.528C390.005 84.528 387.283 85.2878 384.542 86.7588L385.488 88.5212C387.994 87.1762 390.393 86.528 392.695 86.528V84.528ZM384.033 87.4495L383.409 90.6655L385.372 91.0465L385.996 87.8305L384.033 87.4495ZM383.412 90.65C383.27 91.3242 383.199 92.0013 383.199 92.68H385.199C385.199 92.1427 385.255 91.6038 385.369 91.062L383.412 90.65ZM383.199 92.68C383.199 94.5116 383.797 96.0491 385.09 97.1403L386.38 95.6117C385.625 94.9749 385.199 94.0484 385.199 92.68H383.199ZM385.104 97.1521C386.374 98.1842 388.123 98.624 390.199 98.624V96.624C388.37 96.624 387.143 96.2318 386.365 95.5999L385.104 97.1521Z" fill="#C7C7C7" fill-opacity="0.3"/>
<g filter="url(#filter1_d)">
<g clip-path="url(#clip0)">
<path d="M27.8864 51.6215L29.0143 67.8349L63.9768 93.7537L57.6995 41.0379L45.6992 45.2997L27.8864 51.6215Z" fill="#994034"/>
<path d="M57.6995 41.0379L61.3232 93.1291L134.086 93.0008L132.624 40.0771C132.624 40.0771 115.962 38.9961 111.688 39.051C97.2302 39.2379 57.6995 41.0379 57.6995 41.0379Z" fill="#994034"/>
<path d="M81.7572 98.2013C80.2973 98.2814 78.8321 98.2277 77.3842 98.041C74.2347 97.6426 71.2068 96.6783 68.4818 95.2058C68.4628 95.1966 68.4462 95.1839 68.4329 95.1685C68.4197 95.1532 68.4102 95.1356 68.405 95.1167C68.3998 95.0979 68.3991 95.0783 68.4028 95.0592C68.4066 95.0401 68.4147 95.022 68.4267 95.0059C68.4387 94.9898 68.4544 94.9761 68.4726 94.9657C68.4909 94.9554 68.5114 94.9485 68.5327 94.9457C68.5541 94.9428 68.5759 94.944 68.5967 94.9491C68.6176 94.9543 68.637 94.9633 68.6537 94.9755C71.3409 96.4284 74.3268 97.3802 77.4329 97.7739C82.1943 98.381 89.3141 97.8366 96.1997 91.7924C96.2295 91.7668 96.2693 91.7527 96.3105 91.7531C96.3518 91.7536 96.3912 91.7685 96.4203 91.7947C96.4487 91.8211 96.4644 91.8565 96.4639 91.8931C96.4634 91.9298 96.4468 91.9648 96.4177 91.9906C91.3228 96.461 86.0907 97.9599 81.7572 98.2013Z" fill="#DFDFDF"/>
<path d="M71.3556 58.2711C68.1893 60.9166 65.0099 68.1763 62.4785 76.2118C60.7854 81.59 61.9861 86.6758 67.764 86.354C70.9142 86.1785 70.4153 90.7469 71.3725 92.8671C73.1574 96.8128 74.5935 95.0111 81.0082 94.6371C86.3784 94.3235 88.745 96.4588 91.8316 94.636C97.5325 91.2726 93.1647 97.924 96.5558 95.5095C98.3597 94.2245 101.541 91.0681 102.372 88.9024C104.993 82.0798 103.605 72.4056 101.947 67.745C99.4812 60.8184 93.5995 54.4798 88.6317 53.3741C83.306 52.1926 75.3767 54.9077 71.3556 58.2711Z" fill="white"/>
<path d="M89.22 81.275C89.1977 81.2761 89.1754 81.2731 89.1544 81.2662C89.1163 81.2525 89.0857 81.226 89.069 81.1923C89.0524 81.1586 89.0511 81.1204 89.0653 81.0859C89.0993 81.0069 92.3777 73.1978 87.0498 68.5227C87.0351 68.5098 87.0235 68.4945 87.0155 68.4776C87.0075 68.4607 87.0033 68.4426 87.0031 68.4242C87.0029 68.4059 87.0067 68.3877 87.0143 68.3706C87.022 68.3536 87.0333 68.3381 87.0476 68.325C87.0619 68.3119 87.079 68.3015 87.0978 68.2943C87.1166 68.2871 87.1369 68.2833 87.1573 68.2831C87.1778 68.283 87.1981 68.2864 87.217 68.2933C87.236 68.3001 87.2533 68.3103 87.2679 68.3231C92.7421 73.1338 89.3921 81.1135 89.3577 81.1862C89.3464 81.2111 89.3275 81.2326 89.3031 81.2484C89.2788 81.2641 89.25 81.2733 89.22 81.275V81.275Z" fill="#DFDFDF"/>
<path d="M78.8336 80.7223C78.8094 80.7236 78.7851 80.7198 78.7628 80.7113C78.7405 80.7028 78.7207 80.6898 78.7049 80.6733C78.6916 80.6593 78.6816 80.643 78.6754 80.6255C78.6692 80.6081 78.6669 80.5896 78.6687 80.5714C78.6704 80.5531 78.6762 80.5353 78.6856 80.519C78.695 80.5027 78.708 80.4883 78.7237 80.4765C78.7634 80.4472 82.6865 77.4056 81.4737 73.8465C81.4673 73.8292 81.4649 73.8109 81.4666 73.7927C81.4683 73.7746 81.4741 73.7569 81.4836 73.7409C81.4931 73.7248 81.5062 73.7106 81.5219 73.6991C81.5377 73.6877 81.5559 73.6792 81.5754 73.6742C81.6146 73.6632 81.6571 73.6667 81.6936 73.6838C81.73 73.7009 81.7574 73.7302 81.7697 73.7654C83.0459 77.5022 78.9636 80.6568 78.924 80.6881C78.8988 80.708 78.867 80.72 78.8336 80.7223Z" fill="#DFDFDF"/>
<path d="M83.2517 87.7647C83.2238 87.7668 83.1958 87.7611 83.1716 87.7484C83.1535 87.74 83.1374 87.7284 83.1243 87.7144C83.1111 87.7004 83.1012 87.6843 83.095 87.6668C83.0889 87.6494 83.0866 87.631 83.0883 87.6128C83.0901 87.5945 83.0958 87.5768 83.1052 87.5606C83.1569 87.4702 88.3892 78.3037 85.1807 71.6704C85.1671 71.637 85.1683 71.6002 85.184 71.5675C85.1997 71.5349 85.2288 71.5088 85.2653 71.4948C85.3017 71.4808 85.3428 71.4798 85.38 71.4921C85.4172 71.5044 85.4478 71.529 85.4654 71.5609C88.7334 78.3158 83.4325 87.5965 83.3786 87.689C83.3669 87.7106 83.349 87.729 83.3266 87.7424C83.3043 87.7557 83.2784 87.7634 83.2517 87.7647Z" fill="#DFDFDF"/>
<path d="M83.823 65.4297C82.2563 65.5202 80.6832 65.3973 79.1573 65.065C79.1362 65.0614 79.116 65.0539 79.0982 65.043C79.0805 65.0321 79.0654 65.018 79.054 65.0016C79.0426 64.9852 79.0352 64.9668 79.0321 64.9477C79.0291 64.9285 79.0305 64.909 79.0364 64.8904C79.0422 64.8718 79.0523 64.8545 79.066 64.8396C79.0796 64.8247 79.0966 64.8125 79.1159 64.8038C79.1351 64.7951 79.1562 64.7901 79.1777 64.7891C79.1992 64.7881 79.2207 64.7911 79.2409 64.798C79.3023 64.8133 85.2465 66.281 90.1359 63.2918C90.1526 63.2798 90.1719 63.2711 90.1925 63.2661C90.2132 63.2612 90.2348 63.2601 90.2559 63.263C90.277 63.2659 90.2973 63.2726 90.3154 63.2829C90.3335 63.2931 90.349 63.3066 90.361 63.3225C90.3731 63.3383 90.3813 63.3563 90.3852 63.3751C90.3891 63.394 90.3886 63.4134 90.3838 63.4321C90.379 63.4508 90.3699 63.4684 90.3571 63.4838C90.3444 63.4991 90.3282 63.512 90.3096 63.5215C88.3788 64.6705 86.1375 65.3298 83.823 65.4297V65.4297Z" fill="#DFDFDF"/>
<path d="M27.8865 51.6215C27.8865 51.6215 28.7715 78.5182 29.3777 87.4657C30.0806 97.8361 31.3513 106.797 31.9139 111.683C31.9662 112.133 32.1926 112.552 32.5536 112.868C32.9147 113.184 33.3876 113.377 33.8904 113.413L107.539 118.617L112.018 88.4194L102.812 50.6628L27.8865 51.6215Z" fill="#6B4D76"/>
<path d="M107.54 118.629C107.54 118.629 115.151 114.11 117.822 112.177C124.857 107.087 132.426 99.3264 135.279 96.3111C136.042 95.5047 136.476 94.4894 136.51 93.432C136.66 89.1058 137.429 83.2857 136.975 76.9592C136.224 66.5644 132.625 40.0771 132.625 40.0771L102.812 50.6627C102.812 50.6627 105.972 81.7151 105.261 98.845C104.938 106.672 107.54 118.629 107.54 118.629Z" fill="#84688E"/>
<path d="M88.9828 93.5768C88.9617 94.0401 88.9672 94.0523 88.573 94.0555C87.7983 94.0591 87.0232 94.0565 86.2519 94.0412C85.8127 94.0323 85.8142 94.0197 85.7554 93.5754C85.554 91.7129 85.2633 89.8367 84.971 87.9688C84.8444 87.1827 84.7807 86.4013 84.7029 85.6166C84.712 85.3708 84.6569 85.1265 84.542 84.9032C84.0961 85.8982 83.6715 86.7983 83.288 87.7232C82.942 88.5523 82.4935 89.3081 82.1278 90.1216C82.1148 90.1625 82.0926 90.2006 82.0625 90.2335C82.0325 90.2664 81.9953 90.2934 81.9532 90.3129C81.9111 90.3325 81.865 90.344 81.8177 90.3469C81.7704 90.3499 81.7229 90.344 81.6782 90.3299C80.8784 90.2058 80.0775 89.9652 79.2759 89.9162C78.9729 89.8956 78.8087 89.6361 78.6348 89.4043C77.7214 88.1811 76.9165 86.8831 76.1258 85.5885C75.8059 85.0588 75.4747 84.5338 75.153 84.0125C74.9824 84.0949 75.0496 84.2265 75.0575 84.3406C75.1536 85.7217 75.2731 87.1058 75.2526 88.4789C75.2311 89.8042 75.5966 91.1225 75.9157 92.4413C75.9449 92.5604 75.981 92.6791 76.0057 92.8006C76.0816 93.1919 76.0692 93.2134 75.7052 93.1837C74.7702 93.0838 73.8336 92.9611 72.9152 92.8666C72.6254 92.8369 72.531 92.6798 72.4607 92.4026C72.0508 90.8393 71.9565 89.2228 72.182 87.6298C72.4109 85.9515 72.5336 84.2459 72.2528 82.4773C72.1185 81.6146 71.9564 80.7513 71.8106 79.8892C71.7208 79.3654 71.6729 78.8434 71.6366 78.3229C71.6128 77.9807 71.7472 77.8108 72.0315 77.7617C73.0221 77.5925 74.0343 77.5488 75.0386 77.6317C75.2531 77.6468 75.3737 77.7462 75.4774 77.9695C76.0199 79.0968 76.5625 80.2262 77.1183 81.3465C77.8649 82.8393 78.6362 84.3223 79.4614 85.7774C79.5328 85.9046 79.6088 86.0295 79.6914 86.1498C79.8046 86.31 79.9183 86.3099 80.0036 86.1678C80.145 85.933 80.2719 85.6886 80.4178 85.4514C81.3718 83.8244 82.4884 82.3319 83.4894 80.746C83.6989 80.422 83.8769 80.079 84.0524 79.7341C84.0891 79.6387 84.1498 79.5522 84.2298 79.4814C84.3097 79.4105 84.4068 79.3571 84.5135 79.3253C85.3237 79.0828 86.1669 78.9399 87.0199 78.9005C87.4163 78.8951 87.4371 78.8939 87.513 79.3185C87.7174 80.6229 87.9266 81.9291 88.0968 83.2416C88.3285 85.0712 88.544 86.9017 88.7246 88.7299C88.8194 89.6927 88.8164 90.6506 88.8693 91.6115C88.9073 92.2569 89.0115 92.9214 88.9828 93.5768Z" fill="#FFFEFE"/>
<path d="M70.3826 81.9383C69.6997 80.7178 68.8333 79.5871 67.8078 78.5779C66.6367 77.4189 65.3172 76.795 64.5634 76.7641C61.2268 76.6273 58.1407 77.8234 56.9746 81.4401C55.6079 85.6404 58.0519 90.6882 62.3089 92.3165C64.3875 93.1126 66.2425 92.9302 67.7546 91.5531C69.0597 90.3389 70.0865 88.9067 70.7768 87.3376C71.5572 85.6161 71.4215 83.7978 70.3826 81.9383ZM67.8218 85.6493C67.1065 87.3734 65.9192 88.6158 64.2907 89.3206C62.9665 89.8961 61.7393 89.3316 60.9188 87.8429C60.4274 86.948 60.1927 86.0096 60.1049 84.5801C60.0741 83.2036 60.4595 81.6062 61.6153 80.4113C62.4805 79.5075 63.5611 79.2995 64.8285 79.9076C66.0958 80.5157 67.0545 81.524 67.675 82.8719C68.1157 83.7474 68.1682 84.7405 67.8218 85.6493V85.6493Z" fill="#FFFEFE"/>
<path d="M88.1226 104.786C87.7099 102.581 86.8598 100.46 85.6128 98.5237C85.2629 97.953 84.7867 97.4524 84.2135 97.0527C83.2819 96.4051 82.1115 96.0983 80.9381 96.1942C77.5791 96.4021 75.2271 98.1466 73.7851 101.198C73.2188 102.395 73.2649 103.725 73.7826 105.131C74.1431 106.056 74.6029 106.947 75.1557 107.792C76.7205 110.276 78.8152 111.604 81.4169 111.815C82.4541 111.881 83.4931 111.713 84.4389 111.326C85.3847 110.938 86.2071 110.344 86.831 109.598C87.4138 108.924 87.8304 108.146 88.0531 107.317C88.2757 106.487 88.2994 105.624 88.1226 104.786V104.786ZM84.1581 106.295C83.8042 107.878 82.9122 108.863 81.3543 109.081C80.5358 109.189 79.7794 108.854 79.1697 108.162C78.1209 106.976 77.4244 105.57 77.1455 104.077C76.9747 103.315 77.0137 102.527 77.259 101.782C77.5043 101.036 77.9485 100.356 78.5532 99.7997C78.9629 99.3973 79.4696 99.0842 80.0347 98.8844C81.194 98.4722 82.8495 98.89 83.5458 100.829C83.9216 101.918 84.1593 103.042 84.2545 104.179C84.3397 104.885 84.3072 105.598 84.1581 106.295V106.295Z" fill="#FFFEFE"/>
<path d="M59.7305 95.1769C59.7636 96.0419 59.7081 96.9077 59.5647 97.7635C59.3079 99.5245 59.361 101.311 59.7218 103.057C59.8936 103.832 60.0063 104.617 60.0592 105.406C60.1255 106.793 59.719 107.885 58.7223 108.634C57.3488 109.668 55.7257 109.948 53.9667 109.811C52.3668 109.725 50.8543 109.162 49.4118 108.203L49.21 108.071C48.6762 107.701 48.6704 107.685 48.924 107.127C49.277 106.38 49.7401 105.678 50.3009 105.041C50.5452 104.751 50.5548 104.757 50.8486 105.078C51.8028 106.12 52.8936 106.758 54.175 106.835C55.9459 106.944 56.9931 105.789 56.8737 103.872C56.8076 102.922 56.8069 102.912 56.07 103.292C53.9431 104.368 50.8444 103.516 49.2499 101.64C48.4237 100.67 47.9041 99.5372 47.4765 98.3598C47.1436 97.3421 46.9407 96.2939 46.8717 95.2352C46.8507 94.9345 46.8298 94.6338 46.781 94.3326C46.7373 94.0706 46.7984 93.9152 47.0155 93.8344C47.8828 93.5716 48.8107 93.512 49.7111 93.6614C49.9124 93.6877 49.9553 93.8372 49.9674 94.0114C50.0217 94.5914 50.0667 95.1718 50.0605 95.7488C50.0191 96.5208 50.1783 97.291 50.5255 97.9984C51.0588 98.993 51.8185 99.6086 52.7984 99.8871C53.2232 100.009 53.6832 99.9875 54.0911 99.8255C55.3279 99.361 56.0587 98.4272 56.3304 97.0297C56.4573 96.5192 56.5321 95.9994 56.5542 95.4766C56.5543 95.1789 56.6635 95.0146 56.9308 94.9539C57.7055 94.7624 58.5111 94.6908 59.3127 94.7422C59.6908 94.7731 59.7081 94.7888 59.7305 95.1769Z" fill="#FFFEFE"/>
<path d="M72.6208 96.4722C72.6412 97.781 72.5066 99.0879 72.2192 100.371C71.8766 102.303 71.9242 104.275 72.3596 106.193C72.6466 107.542 72.8001 108.911 72.8184 110.285C72.8219 110.87 72.8174 110.872 72.2651 110.836C71.5053 110.787 70.7451 110.731 69.9851 110.68C69.7846 110.666 69.6075 110.655 69.6341 110.337C69.7536 108.986 69.4331 107.615 69.19 106.255C68.9342 104.812 68.6783 103.368 68.8063 101.939C68.884 101.172 69.0162 100.41 69.2021 99.6585C69.3932 98.8359 69.3755 98.8161 68.5398 98.7752C67.9088 98.7437 67.2787 98.6914 66.6492 98.6473L66.6559 98.7427C65.8958 98.6893 65.1346 98.6192 64.3761 98.5886C63.8991 98.5694 63.9128 98.5999 63.801 99.0599C63.2906 100.962 63.5244 102.956 64.0803 104.976C64.387 106.05 64.6704 107.123 64.8574 108.209C64.9672 108.803 65.0091 109.406 64.9825 110.007C64.9724 110.229 64.8878 110.314 64.6872 110.299C63.7776 110.231 62.8679 110.161 61.9609 110.097C61.7278 110.08 61.6514 109.949 61.671 109.732C61.8536 107.887 61.2782 106.052 60.8492 104.221C60.3507 102.092 60.1875 100.013 60.5257 97.9703C60.6536 97.2075 60.8869 96.4929 60.9715 95.7075C60.9972 95.4437 61.2012 95.474 61.387 95.4761L63.7087 95.4988C66.3968 95.5184 69.0857 95.5386 71.7754 95.5596C72.597 95.5638 72.5814 95.573 72.6208 96.4722Z" fill="#FFFEFE"/>
<path d="M100.593 98.0203C100.746 100.009 100.77 102.004 100.666 103.995C100.585 105.611 100.446 107.214 100.305 108.816C100.215 109.828 100.217 110.844 100.31 111.856C100.373 112.502 100.355 112.501 99.7924 112.455C99.0272 112.393 98.2665 112.332 97.5034 112.268C97.1087 112.232 97.0958 112.212 97.1098 111.78C97.1466 110.575 97.0963 109.351 97.2837 108.177C97.3046 108.043 97.2923 107.9 97.3011 107.76C97.3193 107.488 97.2136 107.402 96.9644 107.422C95.6907 107.522 94.4016 107.536 93.1159 107.564C92.7105 107.574 92.7068 107.587 92.6836 108.021C92.6428 109.168 92.6112 110.315 92.5704 111.462C92.5539 111.959 92.5494 111.961 92.0604 111.936C91.3388 111.902 90.6145 111.863 89.8924 111.822C89.3844 111.79 89.3795 111.786 89.4292 111.267C89.5514 109.923 89.5661 108.573 89.4731 107.228C89.3441 105.767 89.0749 104.319 88.6686 102.9C88.2011 101.069 88.0041 99.1896 88.0826 97.3119C88.0917 97.0095 88.1988 96.8474 88.4517 96.7813C89.2893 96.5556 90.1582 96.4371 91.0327 96.4293C91.2971 96.4271 91.4032 96.519 91.4221 96.824C91.4765 97.6058 91.5311 98.3898 91.6018 99.1728C91.6349 100.816 91.9304 102.463 92.2423 104.111C92.3412 104.632 92.3524 104.627 92.8353 104.665C94.2698 104.745 95.7088 104.735 97.1416 104.633C97.5623 104.61 97.5553 104.61 97.5697 104.116C97.6159 102.274 97.5203 100.432 97.2836 98.6023C97.174 97.6945 96.99 97.7172 98.0111 97.5209C98.6977 97.399 99.4022 97.3809 100.095 97.4672C100.559 97.5226 100.559 97.5205 100.593 98.0203Z" fill="#FFFEFE"/>
<path d="M47.2195 108.638C47.1724 108.828 47.0407 108.769 46.9404 108.762C45.8467 108.681 44.7541 108.584 43.662 108.528C43.3568 108.509 43.2024 108.358 43.0256 108.084C41.7911 106.146 40.4418 104.294 39.0834 102.444C38.768 102.011 38.7439 102.031 38.378 102.308C38.2239 102.425 38.1041 102.573 38.0292 102.741C37.9543 102.909 37.9266 103.091 37.9484 103.271C38.002 104.708 38.1279 106.15 38.2771 107.595C38.346 108.251 38.3646 108.252 37.7413 108.231C37.0761 108.208 36.4137 108.19 35.7479 108.159C35.3592 108.141 35.349 108.127 35.3003 107.694C35.0922 105.87 34.877 104.044 34.6873 102.218C34.5706 101.073 34.6924 99.9567 34.6833 98.8246C34.6597 97.252 34.7535 95.6979 34.6221 94.1105C34.5969 93.7475 34.7052 93.5708 34.9926 93.4653C35.714 93.2415 36.4758 93.1404 37.2386 93.1674C37.5006 93.1653 37.5512 93.3581 37.5725 93.5651C37.7249 95.0889 38.0472 96.6199 37.9778 98.1227C37.9715 98.2334 37.9383 98.356 38.0547 98.462C38.2104 98.4991 38.2799 98.3641 38.3628 98.2887C39.5041 97.3001 40.4906 96.1771 41.2953 94.9504C41.6271 94.451 41.9886 93.9771 42.3229 93.4796C42.381 93.3682 42.4789 93.2773 42.6011 93.2215C42.7233 93.1657 42.8628 93.148 42.9975 93.1714C43.8172 93.2597 44.618 93.4557 45.3743 93.7531C45.6924 93.8894 45.7246 93.9855 45.52 94.2134C44.683 95.1552 44.058 96.2768 43.3864 97.3614C42.8602 98.2294 42.2147 99.0347 41.465 99.7585C41.1495 100.059 41.1514 100.086 41.4621 100.483C43.2464 102.786 44.8701 105.215 46.5093 107.634C46.7469 107.981 46.9906 108.315 47.2195 108.638Z" fill="#FFFEFE"/>
<path d="M55.5688 76.6091C55.4059 77.603 55.3788 78.5476 55.3045 79.4802C55.2802 79.7647 55.108 79.791 54.8952 79.8007C54.0378 79.8485 53.1836 79.9106 52.3252 79.9439C51.8052 79.9728 51.7725 79.9039 51.8068 80.5973C51.8681 81.8784 52.0062 83.1636 52.1815 84.4487C52.3276 85.5149 52.4478 86.5762 52.4984 87.6372C52.5508 88.7564 52.6545 89.8811 52.7161 90.9998C52.7709 91.7879 52.7456 91.7914 52.039 91.7058C51.1842 91.6022 50.326 91.4945 49.4644 91.3829C48.9727 91.3187 48.9438 91.3036 49.0328 90.7824C49.201 89.7139 49.281 88.6357 49.2725 87.5567C49.2895 86.252 49.1942 84.9481 48.9872 83.6565C48.8195 82.6124 48.7517 81.5711 48.6722 80.5283C48.6336 79.9746 48.6328 79.9622 48.1089 79.9351C46.8884 79.8678 45.6756 79.877 44.4516 79.7578C43.8699 79.7007 43.866 79.7114 43.8058 79.0797C43.7494 78.2663 43.7423 77.4508 43.7844 76.6368C43.7948 76.2198 43.8017 76.2194 44.1955 76.2433C45.0847 76.3187 45.9735 76.3879 46.866 76.5109C48.5895 76.7296 50.3312 76.8089 52.0703 76.7478C53.2037 76.6972 54.3284 76.6553 55.5688 76.6091Z" fill="#FFFEFE"/>
<path d="M13.586 70.7075L27.8868 51.6215L102.812 50.6627L94.1648 80.4804C94.1648 80.4804 80.8338 79.6885 76.8229 79.3644C68.5975 78.69 47.3949 76.8397 39.1725 76.1755C31.2244 75.519 13.586 70.7075 13.586 70.7075Z" fill="#876793"/>
<path d="M110.222 104.348C110.168 102.592 110.693 100.861 111.732 99.3715C117.713 90.5026 122.234 82.2209 125.601 74.1596C126.54 71.911 127.496 69.7384 128.665 67.8349C129.082 67.1538 129.499 66.4873 130.03 66.0163C130.827 65.3016 131.629 64.5886 132.483 65.2885C133.172 65.8518 133.648 67.8551 133.47 69.2016C133.317 70.3426 132.909 71.3397 132.473 72.3508C130.634 76.6337 128.334 80.8569 126.061 85.495C123.419 90.8822 120.524 96.6292 117.417 102.821C116.368 104.916 115.245 106.85 113.188 107.139C111.132 107.429 110.276 106.827 110.222 104.348Z" fill="white"/>
<path d="M134.347 88.6164C134.357 94.7533 130.659 98.2986 127.86 98.748C125.416 99.1402 124.024 95.4058 124.926 90.869C125.217 89.4244 125.672 88.0102 126.282 86.6485C127.887 83.0345 130.888 81.5099 132.615 83.1896C133.82 84.3716 134.343 86.2162 134.347 88.6164ZM127.936 91.9464C127.949 92.1247 127.986 92.4308 128.026 92.7304C128.222 94.2851 128.725 94.6838 129.715 94.1061C130.804 93.473 131.405 92.409 131.559 90.8536C131.687 89.824 131.575 88.7818 131.232 87.7926C130.91 86.9382 130.34 86.7826 129.528 87.5107C128.438 88.4895 127.908 89.8744 127.936 91.9464Z" fill="white"/>
<path d="M121.979 76.1497C122.148 79.64 121.341 82.7932 118.592 85.4987C114.553 89.471 109.337 88.4292 108.48 82.8162C108.085 80.0905 108.389 77.3199 109.369 74.7161C110.789 70.8105 113.881 68.2045 116.75 68.2862C119.737 68.3697 121.453 70.4226 121.848 74.1647C121.916 74.8166 121.935 75.486 121.979 76.1497ZM118.558 77.7372C118.502 74.9298 117.507 73.5716 115.726 73.9748C113.538 74.4714 112.207 76.2527 112.29 78.6818C112.385 81.5224 113.945 82.8012 116.237 82.0511C117.802 81.5372 118.599 80.0271 118.558 77.7372Z" fill="white"/>
<path d="M102.812 50.6628L118.176 78.3794C123.575 77.5811 133.671 68.1477 140.608 66.1457C143.874 65.1998 148.175 62.1579 148.175 62.1579L132.625 40.077L102.812 50.6628Z" fill="#A58DAD"/>
<path d="M121.059 23.4416L120.573 23.885C118.813 25.5341 112.677 31.3471 109.034 35.6097C108.124 36.668 107.324 38.02 106.492 39.3363C105.659 40.6901 104.771 42.0095 103.726 42.9276C101.73 44.6834 107.674 48.4516 104.824 48.2398C103.711 48.157 102.59 48.188 101.485 48.3321C99.7866 48.5625 98.1375 49.0236 96.5941 49.6996C94.7373 50.49 93.501 51.3292 93.0003 51.4029C92.4152 51.4625 86.7257 51.5566 79.2291 51.6536C73.7519 51.7296 67.321 51.8047 61.2163 51.8657C59.45 51.8892 57.7201 51.9022 56.0462 51.9205L54.9542 51.9314C52.3323 51.9629 49.8814 51.9849 47.716 52.0077L47.3081 52.0137L46.0933 52.0273L45.6807 52.0336L45.5836 52.039C45.2751 52.0395 44.9712 52.0398 44.6746 52.0459C44.6526 52.0499 44.63 52.0512 44.6076 52.0496L43.3512 52.0655C43.3071 52.065 43.2631 52.0674 43.2194 52.0728L42.4542 52.078L42.4102 52.0804C42.2708 52.0778 42.1364 52.079 42.0043 52.0822C41.7862 52.0819 41.5802 52.0892 41.3854 52.0896C41.3495 52.0947 41.3131 52.0968 41.2767 52.0957L40.8268 52.0978C40.4814 52.1025 40.1662 52.1076 39.8993 52.1058L39.547 52.1108C39.2269 52.112 39.0069 52.118 38.9045 52.1133C38.0694 46.9808 38.1638 41.7612 39.1841 36.6563C39.6596 34.2743 40.3615 31.9332 41.282 29.6588C42.281 27.1726 43.5949 24.7978 45.1979 22.5808C45.4101 22.2963 45.6228 22.0179 45.8353 21.7375C46.225 21.237 46.634 20.7458 47.058 20.2704C47.8027 19.4203 48.6058 18.6127 49.4629 17.8526C50.3959 17.015 51.4509 16.2945 52.5992 15.7105C52.6863 15.662 52.7806 15.6171 52.8682 15.5748C53.4049 15.3143 53.9646 15.0938 54.5415 14.9153C54.6915 14.8695 54.8324 14.8283 54.9827 14.7867C55.7867 14.5657 56.6163 14.428 57.4552 14.3762C58.8279 14.2978 60.2061 14.3934 61.5492 14.6603L61.9442 14.7362C62.048 14.7595 62.1538 14.7807 62.2577 14.8062C66.6473 15.7713 71.2726 18.091 76.2543 20.0641C76.9176 20.3269 77.5851 20.5833 78.2634 20.8287C79.6756 21.3522 81.1161 21.8119 82.5796 22.2059C83.6642 22.4996 84.7653 22.7419 85.8783 22.9319C86.4441 23.0274 87.009 23.1105 87.5839 23.17C88.8684 23.2952 90.1607 23.3429 91.4522 23.3127V23.3127C91.8648 23.3064 92.2884 23.2932 92.7186 23.2734C93.5911 23.2414 94.4922 23.1871 95.4227 23.1228C97.6045 22.9679 99.9059 22.7315 102.209 22.4825C109.026 21.7551 115.791 20.9474 119.065 21.8497C119.101 21.8535 119.136 21.8628 119.169 21.8772C119.551 21.9798 119.912 22.136 120.24 22.3401C120.451 22.4656 120.633 22.6277 120.773 22.8168C120.914 23.006 121.011 23.2184 121.059 23.4416V23.4416Z" fill="url(#paint0_linear)"/>
<path d="M105.21 32.7081C105.215 32.7476 105.218 32.7873 105.218 32.8271L105.335 32.8206L105.21 32.7081Z" fill="#DC8061"/>
<path d="M158.914 64.8927C159.086 65.8977 158.726 66.674 157.784 67.2244C157.659 67.2959 157.855 67.3059 157.918 67.2711C158.382 67.033 158.751 66.6693 158.97 66.2319C159.19 65.7946 159.25 65.3061 159.142 64.8362C159.138 64.7781 158.909 64.8262 158.914 64.8927Z" fill="#C2B59B"/>
<path d="M161.71 65.7695C161.694 66.8513 161.16 67.8829 160.008 68.2803C159.863 68.3301 159.996 68.4018 160.096 68.3671C161.306 67.9456 161.916 66.8953 161.931 65.7426C161.925 65.6576 161.712 65.7007 161.701 65.77L161.71 65.7695Z" fill="#C2B59B"/>
<path d="M148.164 34.7523C147.844 34.6297 147.517 34.5241 147.183 34.4362L147.515 34.1283C147.793 34.2762 148.018 34.4928 148.164 34.7523V34.7523Z" fill="#684E35"/>
<path d="M165.313 62.548C165.494 64.0264 165.066 66.2404 164.348 67.719C163.914 68.6197 161.592 69.9961 161.386 67.4676C160.782 68.7879 157.801 69.0955 159.004 66.5802C154.624 70.3279 156.108 59.7734 155.754 57.3094C155.749 57.2493 155.746 57.1995 155.724 57.1528C155.355 55.4464 154.677 53.8055 153.718 52.2951C152.114 49.7488 149.71 47.5759 146.695 46.834C147.267 44.5121 149.668 37.2 148.175 34.7495C155.02 37.387 161.077 48.5896 163.83 56.6743C164.453 58.4173 164.926 60.2005 165.245 62.0084C165.263 62.201 165.289 62.3807 165.313 62.548Z" fill="url(#paint1_linear)"/>
<path d="M159.792 36.457C159.792 36.457 155.929 44.5251 146.914 50.9398C142.228 54.3233 136.738 56.6948 130.867 57.8711C112.87 61.4467 99.6599 52.1457 96.5881 49.7123C96.139 49.3605 95.9063 49.1507 95.9063 49.1507C97.9327 47.1122 99.6376 44.8338 100.973 42.3792C102.289 39.9138 103.26 37.0263 102.952 34.1288C102.942 33.9919 102.921 33.8578 102.901 33.7278C102.354 30.0037 102.123 26.248 102.209 22.4928C102.37 17.302 103.357 12.8022 105.908 12.2937C109.652 11.5459 116.958 19.4541 119.077 21.8531C119.298 22.1072 119.464 22.2937 119.563 22.409C119.576 22.4298 119.593 22.4492 119.611 22.4666L119.669 22.5342L120.252 22.3435C121.521 21.9261 122.812 21.5664 124.121 21.2661C125.414 21.0444 126.722 20.902 128.036 20.8399L128.086 20.5976C128.469 18.865 130.998 8.36044 135.879 7.38283C141.204 6.32217 143.939 14.5495 146.379 21.5794C147.018 23.4176 148.23 25.3008 149.691 27.0952C150.103 27.6053 150.536 28.1037 150.984 28.5972C152.626 30.3877 154.397 32.0798 156.285 33.6628C158.279 35.3817 159.792 36.457 159.792 36.457Z" fill="#FFDD28"/>
<path d="M103.019 16.1603C101.94 20.124 102.063 26.3607 102.61 31.3643C106.759 27.925 109.422 26.5525 112.911 25.1799C108.672 19.4368 106.198 17.3011 103.019 16.1603Z" fill="#684E35"/>
<path d="M132.928 20.4903C137.113 20.1885 142.675 20.0286 146.063 20.7684C144.219 15.4395 142.157 9.67095 138.913 7.8655C131.997 10.6449 132.928 20.4903 132.928 20.4903Z" fill="#684E35"/>
<path d="M116.447 31.0892L119.09 31.9974C119.09 31.9974 117.015 35.2583 112.033 35.3734L114.174 33.6388L114.192 33.6253L114.216 33.6032L114.479 33.3804C115.004 32.9346 115.461 32.4282 115.838 31.8746C115.843 31.8707 115.847 31.8662 115.851 31.8613L115.864 31.8461L116.447 31.0892Z" fill="#684E35"/>
<path d="M135.379 50.589C137.712 50.0427 138.156 48.4629 138.175 48.3953C138.187 48.3333 138.173 48.2695 138.134 48.2168C138.096 48.1641 138.036 48.1266 137.968 48.1118C137.9 48.097 137.828 48.1061 137.767 48.1372C137.706 48.1684 137.661 48.2192 137.64 48.2793C137.623 48.3365 137.238 49.6382 135.239 50.1117C133.301 50.5715 132.13 47.7682 132.118 47.7397C132.106 47.7093 132.087 47.6814 132.063 47.6576C132.039 47.6338 132.009 47.6146 131.977 47.6009C131.944 47.5873 131.909 47.5795 131.873 47.5781C131.837 47.5767 131.801 47.5816 131.767 47.5927C131.733 47.6037 131.702 47.6206 131.676 47.6424C131.649 47.6643 131.628 47.6905 131.612 47.7198C131.597 47.7491 131.589 47.7807 131.587 47.813C131.586 47.8452 131.591 47.8775 131.603 47.9078C131.657 48.0422 132.964 51.1606 135.379 50.589Z" fill="#684E35"/>
<path d="M130.323 51.7865C132.74 51.2147 132.158 47.9227 132.132 47.7826C132.12 47.718 132.079 47.6606 132.02 47.6226C131.96 47.5846 131.886 47.5692 131.814 47.5796C131.743 47.5919 131.68 47.6285 131.637 47.6816C131.595 47.7347 131.578 47.8004 131.588 47.8649C131.59 47.8939 132.114 50.852 130.181 51.3094C128.179 51.7831 127.131 50.8173 127.084 50.7762C127.033 50.7294 126.964 50.7023 126.892 50.7005C126.819 50.6987 126.749 50.7224 126.696 50.7666C126.643 50.811 126.612 50.8723 126.609 50.9373C126.607 51.0022 126.633 51.0654 126.683 51.1129C126.735 51.1641 127.988 52.337 130.323 51.7865Z" fill="#684E35"/>
<path d="M131.762 47.4947C131.125 47.6446 129.466 46.8024 128.336 46.1638C128.208 46.0914 128.105 45.9897 128.035 45.8693C127.966 45.7489 127.934 45.6141 127.943 45.4789C127.951 45.3437 127.999 45.2129 128.083 45.1001C128.166 44.9874 128.282 44.8966 128.418 44.8374C129.832 43.9952 131.517 43.5968 133.211 43.7044C133.361 43.6955 133.512 43.7229 133.647 43.7838C133.782 43.8447 133.896 43.9369 133.978 44.0508C134.06 44.1647 134.107 44.2962 134.113 44.4317C134.12 44.5672 134.085 44.7016 134.014 44.8213C133.392 45.876 132.401 47.3425 131.762 47.4947Z" fill="#D23518"/>
<path d="M134.078 44.2348C132.011 44.5354 129.965 44.9427 127.95 45.4545C127.967 45.3255 128.018 45.202 128.1 45.0946C128.181 44.9871 128.29 44.8989 128.418 44.8373C129.832 43.9951 131.517 43.5967 133.211 43.7044C133.399 43.6978 133.586 43.7458 133.742 43.8413C133.898 43.9368 134.016 44.0747 134.078 44.2348V44.2348Z" fill="#F56C56"/>
<path d="M138.676 41.4534C141.621 41.2894 143.859 39.0144 143.675 36.372C143.491 33.7297 140.955 31.7206 138.01 31.8846C135.066 32.0486 132.827 34.3236 133.011 36.966C133.195 39.6083 135.731 41.6174 138.676 41.4534Z" fill="white"/>
<path d="M122.354 45.4009C125.207 44.7259 126.909 42.1034 126.155 39.5435C125.402 36.9835 122.479 35.4555 119.626 36.1305C116.774 36.8056 115.072 39.428 115.825 41.9879C116.578 44.5479 119.501 46.0759 122.354 45.4009Z" fill="white"/>
<path d="M139.3 34.0841C140.021 33.9139 140.779 33.9187 141.496 34.0983C142.214 34.2778 142.866 34.6255 143.385 35.1057C143.427 35.2198 143.472 35.3339 143.506 35.4507C143.685 36.0591 143.73 36.6932 143.636 37.3168C143.542 37.9404 143.312 38.5413 142.959 39.085C142.606 39.6288 142.138 40.1048 141.58 40.4858C141.022 40.8669 140.385 41.1455 139.707 41.3057C139.575 41.338 139.444 41.3599 139.311 41.3819C138.411 41.1721 137.614 40.7005 137.044 40.0407C136.475 39.3809 136.165 38.5703 136.164 37.7359C136.162 36.9015 136.47 36.0903 137.037 35.4295C137.605 34.7687 138.401 34.2955 139.3 34.0841V34.0841Z" fill="#232E3D"/>
<path d="M121.953 38.1898C122.673 38.0198 123.431 38.0248 124.149 38.2043C124.867 38.3838 125.518 38.7313 126.037 39.2113C126.08 39.3255 126.125 39.4375 126.159 39.5564C126.338 40.1649 126.382 40.7992 126.288 41.4229C126.194 42.0466 125.964 42.6476 125.611 43.1914C125.258 43.7352 124.789 44.2112 124.231 44.5921C123.673 44.9731 123.036 45.2515 122.358 45.4115C122.228 45.4437 122.095 45.4657 121.964 45.4876C121.068 45.275 120.276 44.8029 119.71 44.1445C119.145 43.4862 118.837 42.6786 118.836 41.8475C118.835 41.0164 119.14 40.2083 119.704 39.549C120.268 38.8898 121.059 38.4163 121.954 38.2023L121.953 38.1898Z" fill="#232E3D"/>
<path d="M139.214 36.5355C139.238 36.6198 139.29 36.6957 139.363 36.7535C139.436 36.8113 139.526 36.8485 139.622 36.8603C139.718 36.8721 139.816 36.8581 139.904 36.8199C139.991 36.7818 140.064 36.7212 140.113 36.646C140.162 36.5707 140.185 36.4841 140.179 36.3971C140.173 36.3101 140.139 36.2266 140.08 36.1571C140.021 36.0877 139.941 36.0355 139.849 36.007C139.757 35.9786 139.658 35.9752 139.564 35.9973C139.501 36.012 139.443 36.0376 139.391 36.0726C139.34 36.1076 139.297 36.1513 139.264 36.2013C139.232 36.2513 139.211 36.3065 139.202 36.3638C139.193 36.4212 139.197 36.4795 139.214 36.5355V36.5355Z" fill="white"/>
<path d="M121.891 40.6357C121.916 40.72 121.968 40.7958 122.04 40.8536C122.113 40.9115 122.203 40.9486 122.3 40.9605C122.396 40.9723 122.494 40.9582 122.581 40.9201C122.669 40.8819 122.742 40.8214 122.791 40.7461C122.84 40.6709 122.863 40.5842 122.857 40.4972C122.851 40.4102 122.816 40.3267 122.757 40.2573C122.699 40.1879 122.618 40.1356 122.526 40.1072C122.435 40.0787 122.335 40.0754 122.241 40.0975C122.179 40.1122 122.12 40.1377 122.069 40.1727C122.018 40.2077 121.974 40.2515 121.942 40.3014C121.909 40.3514 121.888 40.4067 121.879 40.464C121.871 40.5214 121.875 40.5797 121.891 40.6357V40.6357Z" fill="white"/>
<path d="M143.015 31.0874C141.805 31.0418 140.602 30.8862 139.426 30.6232C137.54 30.1912 136.557 29.3986 136.557 29.3986L134.665 31.4547C134.665 31.4547 138.456 33.4815 143.015 31.0874Z" fill="#684E35"/>
<path d="M107.499 53.3766C105.508 43.3029 91.0407 39.6097 87.2311 41.7123C72.5225 49.8327 96.9076 53.0401 97.3646 54.6073C98.4949 58.4812 97.7851 62.8532 104.11 60.6855C106.782 59.7726 107.509 53.4198 107.499 53.3766Z" fill="#684E35"/>
<path d="M99.6644 57.5272C100.305 58.5602 99.7359 59.9584 98.4079 60.1636C98.2907 60.1805 98.238 60.3251 98.3872 60.3002C98.7254 60.2448 99.0437 60.1173 99.3155 59.9286C99.5872 59.7399 99.8044 59.4953 99.9488 59.2155C100.093 58.9358 100.161 58.629 100.145 58.3209C100.13 58.0129 100.032 57.7126 99.8607 57.4455C99.8139 57.3731 99.6029 57.4452 99.6577 57.5317L99.6644 57.5272Z" fill="#C83F61"/>
<path d="M102.648 58.0396C103.137 59.3011 102.704 60.9762 101.183 61.4377C101.054 61.4782 101.084 61.5806 101.214 61.5401C102.82 61.0509 103.406 59.3715 102.867 57.9837C102.841 57.9123 102.634 57.9717 102.638 58.0402L102.648 58.0396Z" fill="#C83F61"/>
<path d="M105.234 56.9359C105.631 57.2839 105.872 57.7494 105.914 58.2454C105.956 58.7414 105.795 59.2341 105.461 59.6313C105.414 59.6902 105.628 59.6616 105.662 59.6201C106.009 59.2142 106.177 58.7086 106.135 58.1988C106.094 57.689 105.846 57.2105 105.438 56.8538C105.395 56.8124 105.191 56.8862 105.234 56.9276L105.234 56.9359Z" fill="#C83F61"/>
<path d="M157.797 66.1269C157.932 67.3001 156.794 68.3839 155.486 68.1048C155.373 68.0799 155.26 68.1924 155.406 68.2238C155.742 68.2937 156.092 68.2898 156.426 68.2127C156.76 68.1355 157.068 67.9873 157.324 67.7805C157.581 67.5737 157.778 67.3146 157.899 67.0249C158.02 66.7353 158.061 66.4237 158.019 66.1166C158.014 66.0337 157.781 66.0258 157.788 66.1295L157.797 66.1269Z" fill="#C83F61"/>
<path d="M160.318 67.6459C160.213 68.978 159.082 70.3652 157.482 70.2544C157.347 70.2432 157.329 70.3483 157.466 70.3573C159.159 70.4713 160.433 69.1385 160.547 67.6726C160.542 67.598 160.324 67.5747 160.313 67.6461L160.318 67.6459Z" fill="#C83F61"/>
<path d="M84.9407 74.4902L84.8804 74.4561C89.0227 67.9984 92.4388 63.7422 96.3033 60.2272C100.866 56.0778 105.99 53.086 112.428 50.8121C112.84 50.6663 113.272 50.5069 113.731 50.3397C116.914 49.1714 120.878 47.7182 123.67 48.5682L123.649 48.6298C120.881 47.7868 116.93 49.2351 113.758 50.3986C113.306 50.5674 112.867 50.7272 112.453 50.8731C99.1396 55.5744 92.0551 63.3951 84.9407 74.4902Z" fill="white"/>
<path d="M93.0842 76.7889L93.0197 76.7612C96.435 70.0255 100.405 64.354 104.819 59.9069C110.435 54.2478 116.635 50.7588 123.241 49.5373L123.246 49.6016C108.322 52.3627 98.606 65.9136 93.0842 76.7889Z" fill="white"/>
<path d="M101.318 77.4482L101.249 77.425C103.088 73.2046 106.198 66.9856 110.57 61.3291C115.334 55.1762 120.375 51.2958 125.556 49.7977L125.577 49.859C120.412 51.3542 115.383 55.2151 110.628 61.3654C106.263 67.0173 103.154 73.2321 101.318 77.4482Z" fill="white"/>
<path d="M140.934 42.9869L140.889 42.9374C145.173 39.6238 151.782 38.7685 160.531 40.3965C166.247 41.4604 172.635 43.5071 180.061 46.6536L180.032 46.7135C172.621 43.5683 166.228 41.5239 160.516 40.4597C151.791 38.8367 145.203 39.6867 140.934 42.9869Z" fill="white"/>
<path d="M140.848 44.6302L140.814 44.5738C145.48 42.2757 151.84 42.1796 159.722 44.2889C166.219 46.0256 172.641 48.9573 177.508 51.3177L177.475 51.3737C172.61 49.0173 166.202 46.0869 159.701 44.3504C151.84 42.2463 145.496 42.3414 140.848 44.6302Z" fill="white"/>
<path d="M138.785 46.6813L138.744 46.6274C140.413 45.5393 142.619 45.0958 145.297 45.311C147.577 45.4942 150.263 46.1607 153.282 47.2916C158.78 49.3504 164.384 52.563 168.091 54.6903C169.079 55.2598 169.935 55.7472 170.641 56.1346L170.606 56.1886C169.897 55.8117 169.044 55.3117 168.053 54.7444C164.348 52.6191 158.747 49.4085 153.256 47.3514C146.72 44.9132 141.85 44.6786 138.785 46.6813Z" fill="white"/>
<path d="M163.181 67.5425C163.589 68.5615 163.242 69.5434 162.199 70.1098C162.127 70.1492 162.337 70.198 162.386 70.1723C162.883 69.9213 163.26 69.5159 163.446 69.0327C163.632 68.5494 163.614 68.0217 163.395 67.5494C163.373 67.4964 163.159 67.4917 163.174 67.5429L163.181 67.5425Z" fill="#C83F61"/>
<path d="M54.5048 40.4726C51.7062 42.9332 49.8693 45.6774 48.1156 48.4836C47.9064 48.8117 47.6975 49.144 47.4883 49.4721C46.407 51.2216 45.0738 52.8358 43.5231 54.2731C36.0796 61.1041 24.9073 61.793 15.6 55.2725C8.59252 50.3602 4.67319 43.7145 3.48867 35.8255C3.21353 33.7567 3.45434 31.659 4.19368 29.6842C4.85368 27.832 5.60714 25.9226 8.11176 25.7061C10.8634 25.4716 13.335 26.2479 14.9685 28.4179C16.7202 30.752 17.3846 33.4985 18.3877 36.1116C19.5075 39.0347 20.5484 41.958 22.3679 44.6339C24.161 47.2634 26.7022 48.5396 29.3421 48.8006C32.0715 49.0795 34.9 48.2829 37.0904 46.7847C37.8396 46.2739 38.5398 45.7078 39.1838 45.0921C40.1577 44.1588 41.0439 43.1547 41.8334 42.0903C42.851 40.7428 44.0432 39.5376 45.5988 38.6869C46.4705 38.2095 47.3762 37.7885 48.1274 39.0811C48.6099 39.9141 49.8026 40.1162 50.8208 40.2448C51.9118 40.386 53.0354 40.3942 54.5048 40.4726Z" fill="#FFDD28"/>
<path d="M165.232 62.0195C162.648 60.2821 159.837 58.8341 156.862 57.7077C156.484 57.5636 156.111 57.4318 155.742 57.3121C155.738 57.252 155.734 57.2022 155.713 57.1555C155.343 55.4491 154.666 53.8082 153.707 52.2978C157.22 53.4731 160.605 54.9392 163.816 56.6771C164.44 58.4228 164.913 60.2088 165.232 62.0195Z" fill="#FFDD28"/>
<path d="M78.2634 20.8286C75.1385 29.9382 70.3495 40.0064 67.6501 39.2574C64.0595 38.2707 69.918 19.7299 62.2573 14.7999C66.6469 15.765 71.2722 18.0848 76.2539 20.0578C76.9176 20.3269 77.5851 20.5833 78.2634 20.8286Z" fill="#684E35"/>
<path d="M128.12 33.8105C126.327 34.2206 124.007 29.0593 120.573 23.8872C120.261 23.4091 119.936 22.9317 119.601 22.461C119.583 22.4436 119.567 22.4242 119.553 22.4033C119.432 22.2248 119.297 22.0512 119.171 21.8729C119.553 21.977 119.914 22.1339 120.242 22.3379C121.511 21.9204 122.803 21.5608 124.112 21.2604C125.405 21.0387 126.713 20.8963 128.027 20.8341L128.078 20.5919C128.4 26.7597 130.105 33.3605 128.12 33.8105Z" fill="#684E35"/>
<path d="M95.4248 23.1205C94.8733 24.8615 93.9729 26.4975 92.7677 27.9486C89.8205 31.4084 84.6124 33.5514 83.1527 32.3794C81.6241 31.1509 85.2449 27.1685 85.8713 22.9323C86.4371 23.0278 87.0019 23.1088 87.5769 23.1704C88.8637 23.2965 90.1584 23.3447 91.4523 23.3147V23.3147C91.8648 23.3084 92.2885 23.2952 92.7186 23.2754C93.5934 23.2434 94.4945 23.189 95.4248 23.1205Z" fill="#684E35"/>
<path d="M156.252 33.6687C153.378 35.9107 149.854 37.0834 148.697 36.1507C147.397 35.1113 149.806 32.0833 150.956 28.6029C152.596 30.3933 154.366 32.0856 156.252 33.6687V33.6687Z" fill="#684E35"/>
<path d="M107.195 43.1257C106.344 44.0059 103.67 43.6218 100.973 42.371C102.289 39.9056 103.259 37.0181 102.951 34.1206L103.179 34.0579C104.396 38.1872 108.541 41.7371 107.195 43.1257Z" fill="#684E35"/>
<path d="M43.5337 54.2892C41.7657 55.0623 39.8641 55.5604 37.9101 55.762C35.9666 55.941 32.6195 56.2524 30.6839 54.4428C29.2944 53.1461 28.9742 51.0779 29.3309 48.8012C32.0602 49.0802 34.8887 48.2835 37.0791 46.7854C37.8283 46.2746 38.5285 45.7084 39.1724 45.0928C42.7274 47.6012 46.579 47.5366 48.116 48.4857C48.2819 48.576 48.4257 48.6955 48.5388 48.8369C48.6519 48.9784 48.732 49.1389 48.7741 49.3089C49.1237 50.7654 46.8037 52.8683 43.5337 54.2892Z" fill="#684E35"/>
<path d="M59.1823 34.1371C58.1997 41.391 52.9865 48.6974 47.2848 52.017C46.7195 52.0277 46.1791 52.0307 45.6621 52.0366L45.565 52.042C45.2565 52.0425 44.953 52.049 44.656 52.0489C44.634 52.0529 44.6114 52.0542 44.589 52.0527C44.1533 52.0603 43.7289 52.0631 43.3326 52.0685C43.2885 52.068 43.2445 52.0704 43.2008 52.0758L42.4355 52.081L42.4101 52.0824L42.0161 52.0877C41.8697 52.0855 41.7306 52.087 41.5917 52.0905C41.52 52.0945 41.453 52.0983 41.386 52.102C41.3501 52.1071 41.3137 52.1091 41.2774 52.108L40.8274 52.1102C40.482 52.1149 40.1668 52.1199 39.8999 52.1181L39.5476 52.1232C39.2275 52.1244 39.0075 52.1304 38.9051 52.1257C38.07 46.9931 38.1645 41.7736 39.1848 36.6687C39.6603 34.2867 40.3621 31.9456 41.2826 29.6712C42.2816 27.185 43.5955 24.8102 45.1985 22.5932C45.4107 22.3087 45.6234 22.0304 45.8359 21.75C46.2256 21.2494 46.6346 20.7582 47.0586 20.2828C47.8025 19.4284 48.6054 18.6168 49.4626 17.8526C50.3956 17.015 51.4506 16.2945 52.5989 15.7105C57.6608 20.2044 60.0589 27.6282 59.1823 34.1371Z" fill="#684E35"/>
</g>
</g>
<defs>
<filter id="filter0_d" x="174.779" y="23.824" width="264.915" height="90.36" filterUnits="userSpaceOnUse" color-interpolation-filters="sRGB">
<feFlood flood-opacity="0" result="BackgroundImageFix"/>
<feColorMatrix in="SourceAlpha" type="matrix" values="0 0 0 0 0 0 0 0 0 0 0 0 0 0 0 0 0 0 127 0"/>
<feOffset dy="4"/>
<feGaussianBlur stdDeviation="2"/>
<feColorMatrix type="matrix" values="0 0 0 0 0 0 0 0 0 0 0 0 0 0 0 0 0 0 0.25 0"/>
<feBlend mode="normal" in2="BackgroundImageFix" result="effect1_dropShadow"/>
<feBlend mode="normal" in="SourceGraphic" in2="effect1_dropShadow" result="shape"/>
</filter>
<filter id="filter1_d" x="0" y="0.0761719" width="180.525" height="134.924" filterUnits="userSpaceOnUse" color-interpolation-filters="sRGB">
<feFlood flood-opacity="0" result="BackgroundImageFix"/>
<feColorMatrix in="SourceAlpha" type="matrix" values="0 0 0 0 0 0 0 0 0 0 0 0 0 0 0 0 0 0 127 0"/>
<feOffset dx="2" dy="3"/>
<feGaussianBlur stdDeviation="2"/>
<feColorMatrix type="matrix" values="0 0 0 0 0 0 0 0 0 0 0 0 0 0 0 0 0 0 0.25 0"/>
<feBlend mode="normal" in2="BackgroundImageFix" result="effect1_dropShadow"/>
<feBlend mode="normal" in="SourceGraphic" in2="effect1_dropShadow" result="shape"/>
</filter>
<linearGradient id="paint0_linear" x1="37.5159" y1="34.9879" x2="121.456" y2="29.1485" gradientUnits="userSpaceOnUse">
<stop offset="0.22" stop-color="#FDDC2E"/>
<stop offset="1" stop-color="#FFED8B"/>
</linearGradient>
<linearGradient id="paint1_linear" x1="19235.8" y1="15836.3" x2="17844.2" y2="13952.6" gradientUnits="userSpaceOnUse">
<stop offset="0.22" stop-color="#49648C"/>
<stop offset="1" stop-color="#684D35"/>
</linearGradient>
<clipPath id="clip0">
<rect width="167.482" height="113.842" fill="white" transform="matrix(0.996881 -0.0789193 0.048885 0.998804 2 14.2938)"/>
</clipPath>
</defs>
</svg>
